<svg width="244" height="53" viewBox="0 0 244 53" fill="none" xmlns="http://www.w3.org/2000/svg">
<path opacity="0.5" d="M131.75 22.5C131.75 32.5792 123.579 40.75 113.5 40.75C103.421 40.75 95.25 32.5792 95.25 22.5C95.25 12.4208 103.421 4.25 113.5 4.25C123.579 4.25 131.75 12.4208 131.75 22.5Z" fill="#68BAF5" stroke="#45CB85"/>
<path d="M107.078 17.7131C106.727 13.8056 103.714 10.1644 102.25 8.83313L101.444 8.13938C104.818 5.29833 109.089 3.74338 113.5 3.75001C117.651 3.75001 121.487 5.10001 124.592 7.38001C125.031 8.71313 124.195 11.4975 123.317 12.8288C122.999 13.3106 122.279 13.9106 121.487 14.4788C119.706 15.7594 117.456 16.3913 116.312 18.75C116.027 19.3439 115.971 20.0226 116.157 20.655C116.269 21.0675 116.344 21.5156 116.344 21.9525C116.348 23.3681 114.916 24.39 113.5 24.375C109.817 24.3356 107.406 21.3675 107.078 17.7131ZM116.194 34.2675C118.047 30.7763 124.221 30.7763 124.221 30.7763C130.656 30.7088 131.526 26.8013 132.107 24.8269C131.595 28.9165 129.75 32.7235 126.857 35.6597C123.965 38.596 120.186 40.498 116.104 41.0719C115.499 39.7969 114.782 36.9281 116.194 34.2675Z" fill="#45CB85"/>
<mask id="path-3-outside-1_18_99" maskUnits="userSpaceOnUse" x="-2" y="19" width="248" height="29" fill="black">
<rect fill="white" x="-2" y="19" width="248" height="29"/>
<path d="M6.688 45V28.456H0.128V22.6H20.8V28.456H14.24V45H6.688ZM22.225 45V27.496H29.105V32.776L27.985 31.272C28.5183 29.9067 29.3717 28.8827 30.545 28.2C31.7183 27.5173 33.1263 27.176 34.769 27.176V33.576C34.449 33.5333 34.161 33.5013 33.905 33.48C33.6703 33.4587 33.425 33.448 33.169 33.448C32.081 33.448 31.185 33.736 30.481 34.312C29.7983 34.8667 29.457 35.8373 29.457 37.224V45H22.225ZM46.442 45V41.896L45.93 41.064V35.176C45.93 34.3227 45.6633 33.672 45.13 33.224C44.618 32.776 43.7753 32.552 42.602 32.552C41.8127 32.552 41.0127 32.68 40.202 32.936C39.3913 33.1707 38.698 33.5013 38.122 33.928L35.818 29.16C36.842 28.52 38.0687 28.0293 39.498 27.688C40.9273 27.3467 42.3247 27.176 43.69 27.176C46.698 27.176 49.0233 27.848 50.666 29.192C52.33 30.536 53.162 32.6693 53.162 35.592V45H46.442ZM41.482 45.32C40.0527 45.32 38.858 45.0747 37.898 44.584C36.938 44.0933 36.2127 43.4427 35.722 42.632C35.2313 41.8 34.986 40.8827 34.986 39.88C34.986 38.7493 35.274 37.7893 35.85 37C36.426 36.2107 37.3007 35.6133 38.474 35.208C39.6687 34.8027 41.1727 34.6 42.986 34.6H46.634V38.088H44.138C43.37 38.088 42.8047 38.216 42.442 38.472C42.1007 38.7067 41.93 39.0693 41.93 39.56C41.93 39.9653 42.0793 40.3067 42.378 40.584C42.698 40.84 43.1247 40.968 43.658 40.968C44.1487 40.968 44.5967 40.84 45.002 40.584C45.4287 40.3067 45.738 39.88 45.93 39.304L46.858 41.448C46.5807 42.7493 45.994 43.72 45.098 44.36C44.202 45 42.9967 45.32 41.482 45.32ZM60.935 45L53.895 27.496H61.319L66.663 41.704H62.919L68.615 27.496H75.463L68.423 45H60.935ZM85.764 45.32C83.6307 45.32 81.764 44.9253 80.164 44.136C78.5853 43.3467 77.3587 42.2693 76.484 40.904C75.6093 39.5173 75.172 37.96 75.172 36.232C75.172 34.4613 75.5987 32.8933 76.452 31.528C77.3267 30.1627 78.5107 29.096 80.004 28.328C81.5187 27.56 83.2147 27.176 85.092 27.176C86.82 27.176 88.4093 27.5173 89.86 28.2C91.332 28.8827 92.5053 29.896 93.38 31.24C94.276 32.584 94.724 34.248 94.724 36.232C94.724 36.488 94.7133 36.776 94.692 37.096C94.6707 37.3947 94.6493 37.672 94.628 37.928H81.156V34.44H90.788L88.068 35.368C88.068 34.6853 87.94 34.1093 87.684 33.64C87.4493 33.1493 87.1187 32.776 86.692 32.52C86.2653 32.2427 85.7533 32.104 85.156 32.104C84.5587 32.104 84.036 32.2427 83.588 32.52C83.1613 32.776 82.8307 33.1493 82.596 33.64C82.3613 34.1093 82.244 34.6853 82.244 35.368V36.456C82.244 37.2027 82.3933 37.8427 82.692 38.376C82.9907 38.9093 83.4173 39.3147 83.972 39.592C84.5267 39.848 85.1987 39.976 85.988 39.976C86.7987 39.976 87.46 39.8693 87.972 39.656C88.5053 39.4427 89.06 39.1227 89.636 38.696L93.412 42.504C92.5587 43.4213 91.5027 44.1253 90.244 44.616C89.0067 45.0853 87.5133 45.32 85.764 45.32ZM97.0063 45V21.256H104.238V45H97.0063ZM138.753 45.512C136.939 45.512 135.265 45.2347 133.729 44.68C132.214 44.104 130.891 43.2933 129.761 42.248C128.651 41.2027 127.787 39.9653 127.169 38.536C126.55 37.1067 126.241 35.528 126.241 33.8C126.241 32.072 126.55 30.4933 127.169 29.064C127.787 27.6347 128.662 26.3973 129.793 25.352C130.923 24.3067 132.257 23.5067 133.793 22.952C135.35 22.376 137.057 22.088 138.913 22.088C141.131 22.088 143.105 22.4613 144.833 23.208C146.582 23.9547 148.022 25.0213 149.153 26.408L144.321 30.664C143.617 29.8533 142.849 29.2453 142.017 28.84C141.206 28.4133 140.299 28.2 139.297 28.2C138.465 28.2 137.707 28.328 137.025 28.584C136.363 28.84 135.798 29.2133 135.329 29.704C134.859 30.1947 134.497 30.7813 134.241 31.464C133.985 32.1467 133.857 32.9253 133.857 33.8C133.857 34.632 133.985 35.4 134.241 36.104C134.497 36.7867 134.859 37.3733 135.329 37.864C135.798 38.3547 136.353 38.7387 136.993 39.016C137.654 39.272 138.39 39.4 139.201 39.4C140.054 39.4 140.886 39.2613 141.697 38.984C142.507 38.6853 143.371 38.184 144.289 37.48L148.513 42.664C147.147 43.5813 145.59 44.2853 143.841 44.776C142.091 45.2667 140.395 45.512 138.753 45.512ZM141.953 41.704V33.192H148.513V42.664L141.953 41.704ZM161.17 45.32C159.037 45.32 157.17 44.9253 155.57 44.136C153.992 43.3467 152.765 42.2693 151.89 40.904C151.016 39.5173 150.578 37.96 150.578 36.232C150.578 34.4613 151.005 32.8933 151.858 31.528C152.733 30.1627 153.917 29.096 155.41 28.328C156.925 27.56 158.621 27.176 160.498 27.176C162.226 27.176 163.816 27.5173 165.266 28.2C166.738 28.8827 167.912 29.896 168.786 31.24C169.682 32.584 170.13 34.248 170.13 36.232C170.13 36.488 170.12 36.776 170.098 37.096C170.077 37.3947 170.056 37.672 170.034 37.928H156.562V34.44H166.194L163.474 35.368C163.474 34.6853 163.346 34.1093 163.09 33.64C162.856 33.1493 162.525 32.776 162.098 32.52C161.672 32.2427 161.16 32.104 160.562 32.104C159.965 32.104 159.442 32.2427 158.994 32.52C158.568 32.776 158.237 33.1493 158.002 33.64C157.768 34.1093 157.65 34.6853 157.65 35.368V36.456C157.65 37.2027 157.8 37.8427 158.098 38.376C158.397 38.9093 158.824 39.3147 159.378 39.592C159.933 39.848 160.605 39.976 161.394 39.976C162.205 39.976 162.866 39.8693 163.378 39.656C163.912 39.4427 164.466 39.1227 165.042 38.696L168.818 42.504C167.965 43.4213 166.909 44.1253 165.65 44.616C164.413 45.0853 162.92 45.32 161.17 45.32ZM180.861 45.32C178.45 45.32 176.573 44.744 175.229 43.592C173.885 42.4187 173.213 40.6267 173.213 38.216V23.56H180.445V38.152C180.445 38.6853 180.583 39.1013 180.861 39.4C181.159 39.6987 181.522 39.848 181.949 39.848C182.567 39.848 183.111 39.688 183.581 39.368L185.309 44.392C184.754 44.712 184.082 44.9467 183.293 45.096C182.525 45.2453 181.714 45.32 180.861 45.32ZM170.812 33.736V28.456H184.029V33.736H170.812ZM199.291 27.176C200.635 27.176 201.851 27.4533 202.939 28.008C204.027 28.5413 204.881 29.384 205.499 30.536C206.139 31.688 206.459 33.1813 206.459 35.016V45H199.227V36.264C199.227 35.176 199.035 34.408 198.651 33.96C198.267 33.4907 197.745 33.256 197.083 33.256C196.593 33.256 196.134 33.3733 195.707 33.608C195.302 33.8213 194.971 34.184 194.715 34.696C194.481 35.208 194.363 35.9013 194.363 36.776V45H187.131V21.256H194.363V32.616L192.635 31.144C193.318 29.8213 194.235 28.8293 195.387 28.168C196.561 27.5067 197.862 27.176 199.291 27.176ZM219.577 45.32C217.443 45.32 215.577 44.9253 213.977 44.136C212.398 43.3467 211.171 42.2693 210.297 40.904C209.422 39.5173 208.985 37.96 208.985 36.232C208.985 34.4613 209.411 32.8933 210.265 31.528C211.139 30.1627 212.323 29.096 213.817 28.328C215.331 27.56 217.027 27.176 218.905 27.176C220.633 27.176 222.222 27.5173 223.673 28.2C225.145 28.8827 226.318 29.896 227.193 31.24C228.089 32.584 228.537 34.248 228.537 36.232C228.537 36.488 228.526 36.776 228.505 37.096C228.483 37.3947 228.462 37.672 228.441 37.928H214.969V34.44H224.601L221.881 35.368C221.881 34.6853 221.753 34.1093 221.497 33.64C221.262 33.1493 220.931 32.776 220.505 32.52C220.078 32.2427 219.566 32.104 218.969 32.104C218.371 32.104 217.849 32.2427 217.401 32.52C216.974 32.776 216.643 33.1493 216.409 33.64C216.174 34.1093 216.057 34.6853 216.057 35.368V36.456C216.057 37.2027 216.206 37.8427 216.505 38.376C216.803 38.9093 217.23 39.3147 217.785 39.592C218.339 39.848 219.011 39.976 219.801 39.976C220.611 39.976 221.273 39.8693 221.785 39.656C222.318 39.4427 222.873 39.1227 223.449 38.696L227.225 42.504C226.371 43.4213 225.315 44.1253 224.057 44.616C222.819 45.0853 221.326 45.32 219.577 45.32ZM230.819 45V27.496H237.699V32.776L236.579 31.272C237.112 29.9067 237.965 28.8827 239.139 28.2C240.312 27.5173 241.72 27.176 243.363 27.176V33.576C243.043 33.5333 242.755 33.5013 242.499 33.48C242.264 33.4587 242.019 33.448 241.763 33.448C240.675 33.448 239.779 33.736 239.075 34.312C238.392 34.8667 238.051 35.8373 238.051 37.224V45H230.819Z"/>
<path d="M106.74 45V40.36L114.836 32.872C115.348 32.3813 115.721 31.9547 115.956 31.592C116.212 31.2293 116.382 30.9093 116.468 30.632C116.553 30.3333 116.596 30.056 116.596 29.8C116.596 29.2453 116.414 28.8187 116.052 28.52C115.689 28.2 115.145 28.04 114.42 28.04C113.758 28.04 113.129 28.2213 112.532 28.584C111.934 28.9253 111.465 29.4373 111.124 30.12L105.428 27.272C106.238 25.736 107.454 24.488 109.076 23.528C110.697 22.568 112.713 22.088 115.124 22.088C116.894 22.088 118.462 22.376 119.828 22.952C121.193 23.528 122.26 24.3387 123.028 25.384C123.796 26.4293 124.18 27.6667 124.18 29.096C124.18 29.8213 124.084 30.5467 123.892 31.272C123.721 31.9973 123.358 32.7653 122.804 33.576C122.249 34.3653 121.428 35.2507 120.34 36.232L114.26 41.768L113.076 39.144H124.692V45H106.74Z"/>
</mask>
<path d="M6.688 45V28.456H0.128V22.6H20.8V28.456H14.24V45H6.688ZM22.225 45V27.496H29.105V32.776L27.985 31.272C28.5183 29.9067 29.3717 28.8827 30.545 28.2C31.7183 27.5173 33.1263 27.176 34.769 27.176V33.576C34.449 33.5333 34.161 33.5013 33.905 33.48C33.6703 33.4587 33.425 33.448 33.169 33.448C32.081 33.448 31.185 33.736 30.481 34.312C29.7983 34.8667 29.457 35.8373 29.457 37.224V45H22.225ZM46.442 45V41.896L45.93 41.064V35.176C45.93 34.3227 45.6633 33.672 45.13 33.224C44.618 32.776 43.7753 32.552 42.602 32.552C41.8127 32.552 41.0127 32.68 40.202 32.936C39.3913 33.1707 38.698 33.5013 38.122 33.928L35.818 29.16C36.842 28.52 38.0687 28.0293 39.498 27.688C40.9273 27.3467 42.3247 27.176 43.69 27.176C46.698 27.176 49.0233 27.848 50.666 29.192C52.33 30.536 53.162 32.6693 53.162 35.592V45H46.442ZM41.482 45.32C40.0527 45.32 38.858 45.0747 37.898 44.584C36.938 44.0933 36.2127 43.4427 35.722 42.632C35.2313 41.8 34.986 40.8827 34.986 39.88C34.986 38.7493 35.274 37.7893 35.85 37C36.426 36.2107 37.3007 35.6133 38.474 35.208C39.6687 34.8027 41.1727 34.6 42.986 34.6H46.634V38.088H44.138C43.37 38.088 42.8047 38.216 42.442 38.472C42.1007 38.7067 41.93 39.0693 41.93 39.56C41.93 39.9653 42.0793 40.3067 42.378 40.584C42.698 40.84 43.1247 40.968 43.658 40.968C44.1487 40.968 44.5967 40.84 45.002 40.584C45.4287 40.3067 45.738 39.88 45.93 39.304L46.858 41.448C46.5807 42.7493 45.994 43.72 45.098 44.36C44.202 45 42.9967 45.32 41.482 45.32ZM60.935 45L53.895 27.496H61.319L66.663 41.704H62.919L68.615 27.496H75.463L68.423 45H60.935ZM85.764 45.32C83.6307 45.32 81.764 44.9253 80.164 44.136C78.5853 43.3467 77.3587 42.2693 76.484 40.904C75.6093 39.5173 75.172 37.96 75.172 36.232C75.172 34.4613 75.5987 32.8933 76.452 31.528C77.3267 30.1627 78.5107 29.096 80.004 28.328C81.5187 27.56 83.2147 27.176 85.092 27.176C86.82 27.176 88.4093 27.5173 89.86 28.2C91.332 28.8827 92.5053 29.896 93.38 31.24C94.276 32.584 94.724 34.248 94.724 36.232C94.724 36.488 94.7133 36.776 94.692 37.096C94.6707 37.3947 94.6493 37.672 94.628 37.928H81.156V34.44H90.788L88.068 35.368C88.068 34.6853 87.94 34.1093 87.684 33.64C87.4493 33.1493 87.1187 32.776 86.692 32.52C86.2653 32.2427 85.7533 32.104 85.156 32.104C84.5587 32.104 84.036 32.2427 83.588 32.52C83.1613 32.776 82.8307 33.1493 82.596 33.64C82.3613 34.1093 82.244 34.6853 82.244 35.368V36.456C82.244 37.2027 82.3933 37.8427 82.692 38.376C82.9907 38.9093 83.4173 39.3147 83.972 39.592C84.5267 39.848 85.1987 39.976 85.988 39.976C86.7987 39.976 87.46 39.8693 87.972 39.656C88.5053 39.4427 89.06 39.1227 89.636 38.696L93.412 42.504C92.5587 43.4213 91.5027 44.1253 90.244 44.616C89.0067 45.0853 87.5133 45.32 85.764 45.32ZM97.0063 45V21.256H104.238V45H97.0063ZM138.753 45.512C136.939 45.512 135.265 45.2347 133.729 44.68C132.214 44.104 130.891 43.2933 129.761 42.248C128.651 41.2027 127.787 39.9653 127.169 38.536C126.55 37.1067 126.241 35.528 126.241 33.8C126.241 32.072 126.55 30.4933 127.169 29.064C127.787 27.6347 128.662 26.3973 129.793 25.352C130.923 24.3067 132.257 23.5067 133.793 22.952C135.35 22.376 137.057 22.088 138.913 22.088C141.131 22.088 143.105 22.4613 144.833 23.208C146.582 23.9547 148.022 25.0213 149.153 26.408L144.321 30.664C143.617 29.8533 142.849 29.2453 142.017 28.84C141.206 28.4133 140.299 28.2 139.297 28.2C138.465 28.2 137.707 28.328 137.025 28.584C136.363 28.84 135.798 29.2133 135.329 29.704C134.859 30.1947 134.497 30.7813 134.241 31.464C133.985 32.1467 133.857 32.9253 133.857 33.8C133.857 34.632 133.985 35.4 134.241 36.104C134.497 36.7867 134.859 37.3733 135.329 37.864C135.798 38.3547 136.353 38.7387 136.993 39.016C137.654 39.272 138.39 39.4 139.201 39.4C140.054 39.4 140.886 39.2613 141.697 38.984C142.507 38.6853 143.371 38.184 144.289 37.48L148.513 42.664C147.147 43.5813 145.59 44.2853 143.841 44.776C142.091 45.2667 140.395 45.512 138.753 45.512ZM141.953 41.704V33.192H148.513V42.664L141.953 41.704ZM161.17 45.32C159.037 45.32 157.17 44.9253 155.57 44.136C153.992 43.3467 152.765 42.2693 151.89 40.904C151.016 39.5173 150.578 37.96 150.578 36.232C150.578 34.4613 151.005 32.8933 151.858 31.528C152.733 30.1627 153.917 29.096 155.41 28.328C156.925 27.56 158.621 27.176 160.498 27.176C162.226 27.176 163.816 27.5173 165.266 28.2C166.738 28.8827 167.912 29.896 168.786 31.24C169.682 32.584 170.13 34.248 170.13 36.232C170.13 36.488 170.12 36.776 170.098 37.096C170.077 37.3947 170.056 37.672 170.034 37.928H156.562V34.44H166.194L163.474 35.368C163.474 34.6853 163.346 34.1093 163.09 33.64C162.856 33.1493 162.525 32.776 162.098 32.52C161.672 32.2427 161.16 32.104 160.562 32.104C159.965 32.104 159.442 32.2427 158.994 32.52C158.568 32.776 158.237 33.1493 158.002 33.64C157.768 34.1093 157.65 34.6853 157.65 35.368V36.456C157.65 37.2027 157.8 37.8427 158.098 38.376C158.397 38.9093 158.824 39.3147 159.378 39.592C159.933 39.848 160.605 39.976 161.394 39.976C162.205 39.976 162.866 39.8693 163.378 39.656C163.912 39.4427 164.466 39.1227 165.042 38.696L168.818 42.504C167.965 43.4213 166.909 44.1253 165.65 44.616C164.413 45.0853 162.92 45.32 161.17 45.32ZM180.861 45.32C178.45 45.32 176.573 44.744 175.229 43.592C173.885 42.4187 173.213 40.6267 173.213 38.216V23.56H180.445V38.152C180.445 38.6853 180.583 39.1013 180.861 39.4C181.159 39.6987 181.522 39.848 181.949 39.848C182.567 39.848 183.111 39.688 183.581 39.368L185.309 44.392C184.754 44.712 184.082 44.9467 183.293 45.096C182.525 45.2453 181.714 45.32 180.861 45.32ZM170.812 33.736V28.456H184.029V33.736H170.812ZM199.291 27.176C200.635 27.176 201.851 27.4533 202.939 28.008C204.027 28.5413 204.881 29.384 205.499 30.536C206.139 31.688 206.459 33.1813 206.459 35.016V45H199.227V36.264C199.227 35.176 199.035 34.408 198.651 33.96C198.267 33.4907 197.745 33.256 197.083 33.256C196.593 33.256 196.134 33.3733 195.707 33.608C195.302 33.8213 194.971 34.184 194.715 34.696C194.481 35.208 194.363 35.9013 194.363 36.776V45H187.131V21.256H194.363V32.616L192.635 31.144C193.318 29.8213 194.235 28.8293 195.387 28.168C196.561 27.5067 197.862 27.176 199.291 27.176ZM219.577 45.32C217.443 45.32 215.577 44.9253 213.977 44.136C212.398 43.3467 211.171 42.2693 210.297 40.904C209.422 39.5173 208.985 37.96 208.985 36.232C208.985 34.4613 209.411 32.8933 210.265 31.528C211.139 30.1627 212.323 29.096 213.817 28.328C215.331 27.56 217.027 27.176 218.905 27.176C220.633 27.176 222.222 27.5173 223.673 28.2C225.145 28.8827 226.318 29.896 227.193 31.24C228.089 32.584 228.537 34.248 228.537 36.232C228.537 36.488 228.526 36.776 228.505 37.096C228.483 37.3947 228.462 37.672 228.441 37.928H214.969V34.44H224.601L221.881 35.368C221.881 34.6853 221.753 34.1093 221.497 33.64C221.262 33.1493 220.931 32.776 220.505 32.52C220.078 32.2427 219.566 32.104 218.969 32.104C218.371 32.104 217.849 32.2427 217.401 32.52C216.974 32.776 216.643 33.1493 216.409 33.64C216.174 34.1093 216.057 34.6853 216.057 35.368V36.456C216.057 37.2027 216.206 37.8427 216.505 38.376C216.803 38.9093 217.23 39.3147 217.785 39.592C218.339 39.848 219.011 39.976 219.801 39.976C220.611 39.976 221.273 39.8693 221.785 39.656C222.318 39.4427 222.873 39.1227 223.449 38.696L227.225 42.504C226.371 43.4213 225.315 44.1253 224.057 44.616C222.819 45.0853 221.326 45.32 219.577 45.32ZM230.819 45V27.496H237.699V32.776L236.579 31.272C237.112 29.9067 237.965 28.8827 239.139 28.2C240.312 27.5173 241.72 27.176 243.363 27.176V33.576C243.043 33.5333 242.755 33.5013 242.499 33.48C242.264 33.4587 242.019 33.448 241.763 33.448C240.675 33.448 239.779 33.736 239.075 34.312C238.392 34.8667 238.051 35.8373 238.051 37.224V45H230.819Z" fill="#68BAF5"/>
<path d="M106.74 45V40.36L114.836 32.872C115.348 32.3813 115.721 31.9547 115.956 31.592C116.212 31.2293 116.382 30.9093 116.468 30.632C116.553 30.3333 116.596 30.056 116.596 29.8C116.596 29.2453 116.414 28.8187 116.052 28.52C115.689 28.2 115.145 28.04 114.42 28.04C113.758 28.04 113.129 28.2213 112.532 28.584C111.934 28.9253 111.465 29.4373 111.124 30.12L105.428 27.272C106.238 25.736 107.454 24.488 109.076 23.528C110.697 22.568 112.713 22.088 115.124 22.088C116.894 22.088 118.462 22.376 119.828 22.952C121.193 23.528 122.26 24.3387 123.028 25.384C123.796 26.4293 124.18 27.6667 124.18 29.096C124.18 29.8213 124.084 30.5467 123.892 31.272C123.721 31.9973 123.358 32.7653 122.804 33.576C122.249 34.3653 121.428 35.2507 120.34 36.232L114.26 41.768L113.076 39.144H124.692V45H106.74Z" fill="#45CB85"/>
<path d="M6.688 45H4.688V47H6.688V45ZM6.688 28.456H8.688V26.456H6.688V28.456ZM0.128 28.456H-1.872V30.456H0.128V28.456ZM0.128 22.6V20.6H-1.872V22.6H0.128ZM20.8 22.6H22.8V20.6H20.8V22.6ZM20.8 28.456V30.456H22.8V28.456H20.8ZM14.24 28.456V26.456H12.24V28.456H14.24ZM14.24 45V47H16.24V45H14.24ZM8.688 45V28.456H4.688V45H8.688ZM6.688 26.456H0.128V30.456H6.688V26.456ZM2.128 28.456V22.6H-1.872V28.456H2.128ZM0.128 24.6H20.8V20.6H0.128V24.6ZM18.8 22.6V28.456H22.8V22.6H18.8ZM20.8 26.456H14.24V30.456H20.8V26.456ZM12.24 28.456V45H16.24V28.456H12.24ZM14.24 43H6.688V47H14.24V43ZM22.225 45H20.225V47H22.225V45ZM22.225 27.496V25.496H20.225V27.496H22.225ZM29.105 27.496H31.105V25.496H29.105V27.496ZM29.105 32.776L27.5009 33.9705L31.105 38.8103V32.776H29.105ZM27.985 31.272L26.1221 30.5443L25.7186 31.5772L26.3809 32.4665L27.985 31.272ZM30.545 28.2L29.5392 26.4713L30.545 28.2ZM34.769 27.176H36.769V25.176H34.769V27.176ZM34.769 33.576L34.5047 35.5585L36.769 35.8604V33.576H34.769ZM33.905 33.48L33.7239 35.4718L33.7314 35.4725L33.7389 35.4731L33.905 33.48ZM30.481 34.312L31.7422 35.8642L31.7475 35.8599L30.481 34.312ZM29.457 45V47H31.457V45H29.457ZM24.225 45V27.496H20.225V45H24.225ZM22.225 29.496H29.105V25.496H22.225V29.496ZM27.105 27.496V32.776H31.105V27.496H27.105ZM30.7091 31.5815L29.5891 30.0775L26.3809 32.4665L27.5009 33.9705L30.7091 31.5815ZM29.8479 31.9997C30.2309 31.0194 30.8001 30.3655 31.5508 29.9287L29.5392 26.4713C27.9432 27.3999 26.8058 28.7939 26.1221 30.5443L29.8479 31.9997ZM31.5508 29.9287C32.3604 29.4576 33.4055 29.176 34.769 29.176V25.176C32.8472 25.176 31.0762 25.577 29.5392 26.4713L31.5508 29.9287ZM32.769 27.176V33.576H36.769V27.176H32.769ZM35.0333 31.5935C34.6885 31.5476 34.367 31.5116 34.0711 31.4869L33.7389 35.4731C33.955 35.4911 34.2095 35.5191 34.5047 35.5585L35.0333 31.5935ZM34.0861 31.4882C33.7863 31.461 33.4803 31.448 33.169 31.448V35.448C33.3697 35.448 33.5544 35.4564 33.7239 35.4718L34.0861 31.4882ZM33.169 31.448C31.7136 31.448 30.3426 31.8412 29.2145 32.7641L31.7475 35.8599C32.0274 35.6308 32.4484 35.448 33.169 35.448V31.448ZM29.2198 32.7598C27.8541 33.8694 27.457 35.5827 27.457 37.224H31.457C31.457 36.6832 31.525 36.3319 31.5997 36.1195C31.669 35.9225 31.7331 35.8716 31.7422 35.8642L29.2198 32.7598ZM27.457 37.224V45H31.457V37.224H27.457ZM29.457 43H22.225V47H29.457V43ZM46.442 45H44.442V47H46.442V45ZM46.442 41.896H48.442V41.3299L48.1453 40.8478L46.442 41.896ZM45.93 41.064H43.93V41.6301L44.2267 42.1122L45.93 41.064ZM45.13 33.224L43.813 34.7292L43.8282 34.7424L43.8436 34.7554L45.13 33.224ZM40.202 32.936L40.7581 34.8571L40.7813 34.8504L40.8043 34.8432L40.202 32.936ZM38.122 33.928L36.3212 34.7982L37.3719 36.9725L39.3125 35.5351L38.122 33.928ZM35.818 29.16L34.758 27.464L33.2367 28.4148L34.0172 30.0302L35.818 29.16ZM39.498 27.688L39.9625 29.6333L39.9626 29.6333L39.498 27.688ZM50.666 29.192L49.3995 30.7399L49.4093 30.7479L50.666 29.192ZM53.162 45V47H55.162V45H53.162ZM37.898 44.584L36.9878 46.3649L37.898 44.584ZM35.722 42.632L33.9993 43.648L34.0051 43.6578L34.011 43.6676L35.722 42.632ZM35.85 37L37.4656 38.1789L35.85 37ZM38.474 35.208L37.8314 33.314L37.821 33.3176L38.474 35.208ZM46.634 34.6H48.634V32.6H46.634V34.6ZM46.634 38.088V40.088H48.634V38.088H46.634ZM42.442 38.472L43.5751 40.1201L43.5853 40.1131L43.5954 40.1059L42.442 38.472ZM42.378 40.584L41.0171 42.0496L41.0711 42.0997L41.1286 42.1457L42.378 40.584ZM45.002 40.584L46.07 42.275L46.081 42.268L46.092 42.2609L45.002 40.584ZM45.93 39.304L47.7654 38.5096L45.6872 33.708L44.0326 38.6715L45.93 39.304ZM46.858 41.448L48.8141 41.8649L48.9473 41.2399L48.6934 40.6536L46.858 41.448ZM45.098 44.36L43.9355 42.7325L45.098 44.36ZM48.442 45V41.896H44.442V45H48.442ZM48.1453 40.8478L47.6333 40.0158L44.2267 42.1122L44.7387 42.9442L48.1453 40.8478ZM47.93 41.064V35.176H43.93V41.064H47.93ZM47.93 35.176C47.93 33.8774 47.5028 32.6052 46.4164 31.6926L43.8436 34.7554C43.86 34.7691 43.8676 34.7776 43.8794 34.8064C43.8954 34.8456 43.93 34.9553 43.93 35.176H47.93ZM46.447 31.7188C45.3855 30.79 43.9389 30.552 42.602 30.552V34.552C43.0708 34.552 43.3928 34.5978 43.6002 34.6529C43.8055 34.7074 43.844 34.7563 43.813 34.7292L46.447 31.7188ZM42.602 30.552C41.5932 30.552 40.5903 30.716 39.5997 31.0288L40.8043 34.8432C41.4351 34.644 42.0321 34.552 42.602 34.552V30.552ZM39.6459 31.0149C38.6464 31.3042 37.7292 31.73 36.9315 32.3209L39.3125 35.5351C39.6668 35.2727 40.1362 35.0372 40.7581 34.8571L39.6459 31.0149ZM39.9228 33.0578L37.6188 28.2898L34.0172 30.0302L36.3212 34.7982L39.9228 33.0578ZM36.878 30.856C37.6835 30.3526 38.6998 29.9349 39.9625 29.6333L39.0335 25.7427C37.4376 26.1238 36.0005 26.6874 34.758 27.464L36.878 30.856ZM39.9626 29.6333C41.2512 29.3256 42.4925 29.176 43.69 29.176V25.176C42.1568 25.176 40.6035 25.3678 39.0335 25.7427L39.9626 29.6333ZM43.69 29.176C46.4255 29.176 48.2373 29.789 49.3995 30.7399L51.9325 27.6441C49.8093 25.907 46.9705 25.176 43.69 25.176V29.176ZM49.4093 30.7479C50.4467 31.5858 51.162 33.0388 51.162 35.592H55.162C55.162 32.2999 54.2133 29.4862 51.9227 27.6361L49.4093 30.7479ZM51.162 35.592V45H55.162V35.592H51.162ZM53.162 43H46.442V47H53.162V43ZM41.482 43.32C40.2702 43.32 39.4099 43.1106 38.8082 42.8031L36.9878 46.3649C38.3061 47.0387 39.8351 47.32 41.482 47.32V43.32ZM38.8082 42.8031C38.1325 42.4578 37.7057 42.047 37.433 41.5964L34.011 43.6676C34.7196 44.8383 35.7435 45.7289 36.9878 46.3649L38.8082 42.8031ZM37.4447 41.616C37.1427 41.1039 36.986 40.5395 36.986 39.88H32.986C32.986 41.2258 33.32 42.4961 33.9993 43.648L37.4447 41.616ZM36.986 39.88C36.986 39.1041 37.1772 38.5741 37.4656 38.1789L34.2344 35.8211C33.3708 37.0046 32.986 38.3946 32.986 39.88H36.986ZM37.4656 38.1789C37.7431 37.7987 38.2352 37.4065 39.127 37.0984L37.821 33.3176C36.3661 33.8202 35.1089 34.6226 34.2344 35.8211L37.4656 38.1789ZM39.1166 37.102C40.0353 36.7902 41.304 36.6 42.986 36.6V32.6C41.0413 32.6 39.302 32.8151 37.8314 33.314L39.1166 37.102ZM42.986 36.6H46.634V32.6H42.986V36.6ZM44.634 34.6V38.088H48.634V34.6H44.634ZM46.634 36.088H44.138V40.088H46.634V36.088ZM44.138 36.088C43.2252 36.088 42.1562 36.2256 41.2886 36.8381L43.5954 40.1059C43.5079 40.1677 43.4783 40.1576 43.5797 40.1346C43.6794 40.1121 43.8577 40.088 44.138 40.088V36.088ZM41.3089 36.8239C40.3193 37.5043 39.93 38.5502 39.93 39.56H43.93C43.93 39.5444 43.9326 39.6337 43.8676 39.7716C43.7968 39.9221 43.6863 40.0436 43.5751 40.1201L41.3089 36.8239ZM39.93 39.56C39.93 40.525 40.3135 41.3962 41.0171 42.0496L43.7389 39.1184C43.7715 39.1487 43.8291 39.215 43.8743 39.3184C43.9197 39.422 43.93 39.5113 43.93 39.56H39.93ZM41.1286 42.1457C41.8979 42.7612 42.8087 42.968 43.658 42.968V38.968C43.5489 38.968 43.5071 38.9547 43.5127 38.9563C43.5162 38.9574 43.5307 38.9621 43.5527 38.9734C43.575 38.9849 43.6008 39.001 43.6274 39.0223L41.1286 42.1457ZM43.658 42.968C44.5173 42.968 45.3372 42.7378 46.07 42.275L43.934 38.893C43.8562 38.9422 43.78 38.968 43.658 38.968V42.968ZM46.092 42.2609C46.9679 41.6915 47.5209 40.8558 47.8274 39.9365L44.0326 38.6715C43.9916 38.7948 43.953 38.8569 43.9348 38.8821C43.919 38.9039 43.9123 38.907 43.912 38.9071L46.092 42.2609ZM44.0946 40.0984L45.0226 42.2424L48.6934 40.6536L47.7654 38.5096L44.0946 40.0984ZM44.9019 41.0311C44.7058 41.9512 44.3439 42.4408 43.9355 42.7325L46.2605 45.9875C47.6441 44.9992 48.4555 43.5474 48.8141 41.8649L44.9019 41.0311ZM43.9355 42.7325C43.4849 43.0544 42.7327 43.32 41.482 43.32V47.32C43.2606 47.32 44.9191 46.9456 46.2605 45.9875L43.9355 42.7325ZM60.935 45L59.0795 45.7463L59.5837 47H60.935V45ZM53.895 27.496V25.496H50.9349L52.0395 28.2423L53.895 27.496ZM61.319 27.496L63.191 26.7919L62.7035 25.496H61.319V27.496ZM66.663 41.704V43.704H69.552L68.535 40.9999L66.663 41.704ZM62.919 41.704L61.0626 40.9598L59.9625 43.704H62.919V41.704ZM68.615 27.496V25.496H67.2621L66.7586 26.7518L68.615 27.496ZM75.463 27.496L77.3186 28.2423L78.4231 25.496H75.463V27.496ZM68.423 45V47H69.7743L70.2785 45.7463L68.423 45ZM62.7905 44.2537L55.7505 26.7497L52.0395 28.2423L59.0795 45.7463L62.7905 44.2537ZM53.895 29.496H61.319V25.496H53.895V29.496ZM59.447 28.2001L64.791 42.4081L68.535 40.9999L63.191 26.7919L59.447 28.2001ZM66.663 39.704H62.919V43.704H66.663V39.704ZM64.7754 42.4482L70.4714 28.2402L66.7586 26.7518L61.0626 40.9598L64.7754 42.4482ZM68.615 29.496H75.463V25.496H68.615V29.496ZM73.6075 26.7497L66.5675 44.2537L70.2785 45.7463L77.3186 28.2423L73.6075 26.7497ZM68.423 43H60.935V47H68.423V43ZM80.164 44.136L79.2696 45.9249L79.2792 45.9296L80.164 44.136ZM76.484 40.904L74.7924 41.971L74.7999 41.9829L76.484 40.904ZM76.452 31.528L74.7679 30.4491L74.7619 30.4585L74.756 30.468L76.452 31.528ZM80.004 28.328L79.0995 26.5442L79.0893 26.5494L80.004 28.328ZM89.86 28.2L89.0084 30.0097L89.0185 30.0144L89.86 28.2ZM93.38 31.24L91.7037 32.3309L91.7098 32.3402L91.7159 32.3494L93.38 31.24ZM94.692 37.096L96.6869 37.2385L96.6876 37.229L94.692 37.096ZM94.628 37.928V39.928H96.4683L96.6211 38.0941L94.628 37.928ZM81.156 37.928H79.156V39.928H81.156V37.928ZM81.156 34.44V32.44H79.156V34.44H81.156ZM90.788 34.44L91.4338 36.3329L90.788 32.44V34.44ZM88.068 35.368H86.068V38.1635L88.7138 37.2609L88.068 35.368ZM87.684 33.64L85.8797 34.5029L85.9027 34.551L85.9282 34.5977L87.684 33.64ZM86.692 32.52L85.602 34.1969L85.6322 34.2165L85.663 34.235L86.692 32.52ZM83.588 32.52L84.617 34.235L84.6289 34.2278L84.6407 34.2205L83.588 32.52ZM82.596 33.64L84.3849 34.5344L84.3927 34.5187L84.4003 34.5029L82.596 33.64ZM82.692 38.376L84.437 37.3988L82.692 38.376ZM83.972 39.592L83.0776 41.3809L83.1055 41.3948L83.1339 41.4079L83.972 39.592ZM87.972 39.656L87.2292 37.799L87.216 37.8044L87.2028 37.8098L87.972 39.656ZM89.636 38.696L91.0562 37.2878L89.837 36.0582L88.4455 37.0889L89.636 38.696ZM93.412 42.504L94.8764 43.8662L96.1847 42.4598L94.8322 41.0958L93.412 42.504ZM90.244 44.616L90.9533 46.486L90.9619 46.4827L90.9704 46.4794L90.244 44.616ZM85.764 43.32C83.8781 43.32 82.3249 42.9719 81.0489 42.3424L79.2792 45.9296C81.2031 46.8788 83.3832 47.32 85.764 47.32V43.32ZM81.0584 42.3471C79.7727 41.7043 78.8313 40.8604 78.1681 39.8251L74.7999 41.9829C75.8861 43.6783 77.398 44.9891 79.2696 45.9249L81.0584 42.3471ZM78.1756 39.837C77.5135 38.7873 77.172 37.6037 77.172 36.232H73.172C73.172 38.3163 73.7052 40.2473 74.7924 41.971L78.1756 39.837ZM77.172 36.232C77.172 34.7975 77.5129 33.6042 78.148 32.588L74.756 30.468C73.6844 32.1825 73.172 34.1252 73.172 36.232H77.172ZM78.1361 32.6069C78.8135 31.5494 79.7274 30.7193 80.9187 30.1066L79.0893 26.5494C77.294 27.4727 75.8398 28.7759 74.7679 30.4491L78.1361 32.6069ZM80.9085 30.1118C82.1143 29.5004 83.4953 29.176 85.092 29.176V25.176C82.934 25.176 80.9231 25.6196 79.0995 26.5442L80.9085 30.1118ZM85.092 29.176C86.5489 29.176 87.8444 29.4619 89.0084 30.0096L90.7116 26.3904C88.9742 25.5728 87.0911 25.176 85.092 25.176V29.176ZM89.0185 30.0144C90.1542 30.541 91.0365 31.3056 91.7037 32.3309L95.0563 30.1491C93.9742 28.4864 92.5098 27.2243 90.7015 26.3856L89.0185 30.0144ZM91.7159 32.3494C92.3474 33.2967 92.724 34.552 92.724 36.232H96.724C96.724 33.944 96.2046 31.8713 95.0441 30.1306L91.7159 32.3494ZM92.724 36.232C92.724 36.4342 92.7155 36.6767 92.6964 36.963L96.6876 37.229C96.7112 36.8753 96.724 36.5418 96.724 36.232H92.724ZM92.6971 36.9535C92.6762 37.2456 92.6555 37.5149 92.6349 37.7619L96.6211 38.0941C96.6432 37.8291 96.6651 37.5438 96.6869 37.2385L92.6971 36.9535ZM94.628 35.928H81.156V39.928H94.628V35.928ZM83.156 37.928V34.44H79.156V37.928H83.156ZM81.156 36.44H90.788V32.44H81.156V36.44ZM90.1422 32.5471L87.4222 33.4751L88.7138 37.2609L91.4338 36.3329L90.1422 32.5471ZM90.068 35.368C90.068 34.4412 89.8944 33.5157 89.4398 32.6823L85.9282 34.5977C85.9856 34.7029 86.068 34.9295 86.068 35.368H90.068ZM89.4883 32.7771C89.1008 31.9669 88.5153 31.2816 87.721 30.805L85.663 34.235C85.722 34.2704 85.7979 34.3318 85.8797 34.5029L89.4883 32.7771ZM87.782 30.8431C86.9778 30.3204 86.0717 30.104 85.156 30.104V34.104C85.4349 34.104 85.5528 34.1649 85.602 34.1969L87.782 30.8431ZM85.156 30.104C84.2377 30.104 83.3402 30.3212 82.5353 30.8195L84.6407 34.2205C84.7318 34.1642 84.8796 34.104 85.156 34.104V30.104ZM82.559 30.805C81.7647 31.2816 81.1792 31.9669 80.7917 32.7771L84.4003 34.5029C84.4821 34.3318 84.558 34.2704 84.617 34.235L82.559 30.805ZM80.8071 32.7456C80.3983 33.5633 80.244 34.4649 80.244 35.368H84.244C84.244 34.9057 84.3244 34.6554 84.3849 34.5344L80.8071 32.7456ZM80.244 35.368V36.456H84.244V35.368H80.244ZM80.244 36.456C80.244 37.4696 80.4479 38.4619 80.947 39.3532L84.437 37.3988C84.3388 37.2234 84.244 36.9357 84.244 36.456H80.244ZM80.947 39.3532C81.4445 40.2416 82.17 40.9271 83.0776 41.3809L84.8664 37.8031C84.6647 37.7023 84.5369 37.5771 84.437 37.3988L80.947 39.3532ZM83.1339 41.4079C84.0163 41.8152 84.9905 41.976 85.988 41.976V37.976C85.4068 37.976 85.0371 37.8808 84.8101 37.7761L83.1339 41.4079ZM85.988 41.976C86.9513 41.976 87.9002 41.8526 88.7412 41.5022L87.2028 37.8098C87.0198 37.8861 86.6461 37.976 85.988 37.976V41.976ZM88.7148 41.513C89.4411 41.2224 90.1451 40.8079 90.8265 40.3031L88.4455 37.0889C87.9749 37.4375 87.5696 37.6629 87.2292 37.799L88.7148 41.513ZM88.2158 40.1042L91.9918 43.9122L94.8322 41.0958L91.0562 37.2878L88.2158 40.1042ZM91.9476 41.1418C91.3152 41.8217 90.518 42.3626 89.5176 42.7526L90.9704 46.4794C92.4873 45.8881 93.8022 45.021 94.8764 43.8662L91.9476 41.1418ZM89.5347 42.746C88.5839 43.1067 87.3446 43.32 85.764 43.32V47.32C87.6821 47.32 89.4294 47.064 90.9533 46.486L89.5347 42.746ZM97.0062 45H95.0062V47H97.0062V45ZM97.0062 21.256V19.256H95.0062V21.256H97.0062ZM104.238 21.256H106.238V19.256H104.238V21.256ZM104.238 45V47H106.238V45H104.238ZM99.0062 45V21.256H95.0062V45H99.0062ZM97.0062 23.256H104.238V19.256H97.0062V23.256ZM102.238 21.256V45H106.238V21.256H102.238ZM104.238 43H97.0062V47H104.238V43ZM106.74 45H104.74V47H106.74V45ZM106.74 40.36L105.382 38.8917L104.74 39.4855V40.36H106.74ZM114.836 32.872L116.194 34.3403L116.207 34.3282L116.22 34.316L114.836 32.872ZM115.956 31.592L114.322 30.4386L114.299 30.4716L114.277 30.5055L115.956 31.592ZM116.468 30.632L118.379 31.2202L118.385 31.2009L118.391 31.1814L116.468 30.632ZM116.052 28.52L114.729 30.0197L114.754 30.0422L114.78 30.0639L116.052 28.52ZM112.532 28.584L113.524 30.3205L113.547 30.3073L113.57 30.2936L112.532 28.584ZM111.124 30.12L110.229 31.9089L112.018 32.8033L112.913 31.0144L111.124 30.12ZM105.428 27.272L103.659 26.3385L102.705 28.1466L104.533 29.0609L105.428 27.272ZM109.076 23.528L110.095 25.249V25.249L109.076 23.528ZM119.828 22.952L119.05 24.7947L119.05 24.7947L119.828 22.952ZM123.028 25.384L121.416 26.5682V26.5682L123.028 25.384ZM123.892 31.272L121.958 30.7602L121.951 30.787L121.945 30.8139L123.892 31.272ZM122.804 33.576L124.44 34.7259L124.447 34.7157L124.454 34.7054L122.804 33.576ZM120.34 36.232L119 34.7468L118.993 34.7532L120.34 36.232ZM114.26 41.768L112.437 42.5906L113.57 45.1012L115.606 43.2468L114.26 41.768ZM113.076 39.144V37.144H109.979L111.253 39.9666L113.076 39.144ZM124.692 39.144H126.692V37.144H124.692V39.144ZM124.692 45V47H126.692V45H124.692ZM108.74 45V40.36H104.74V45H108.74ZM108.098 41.8283L116.194 34.3403L113.478 31.4037L105.382 38.8917L108.098 41.8283ZM116.22 34.316C116.782 33.777 117.28 33.2275 117.635 32.6785L114.277 30.5055C114.163 30.6818 113.914 30.9856 113.452 31.428L116.22 34.316ZM117.59 32.7454C117.91 32.2915 118.208 31.7765 118.379 31.2202L114.556 30.0438C114.559 30.0346 114.55 30.0649 114.511 30.1388C114.472 30.2114 114.412 30.3108 114.322 30.4386L117.59 32.7454ZM118.391 31.1814C118.517 30.7407 118.596 30.2764 118.596 29.8H114.596C114.596 29.8356 114.589 29.9259 114.545 30.0826L118.391 31.1814ZM118.596 29.8C118.596 28.7676 118.232 27.7249 117.323 26.9761L114.78 30.0639C114.753 30.0411 114.721 30.0092 114.69 29.968C114.659 29.9267 114.635 29.8847 114.619 29.8463C114.586 29.7686 114.596 29.7397 114.596 29.8H118.596ZM117.375 27.0203C116.502 26.2499 115.396 26.04 114.42 26.04V30.04C114.642 30.04 114.761 30.0652 114.807 30.0787C114.847 30.0903 114.801 30.0837 114.729 30.0197L117.375 27.0203ZM114.42 26.04C113.371 26.04 112.386 26.333 111.494 26.8744L113.57 30.2936C113.873 30.1096 114.146 30.04 114.42 30.04V26.04ZM111.539 26.8475C110.562 27.4059 109.833 28.2299 109.335 29.2256L112.913 31.0144C113.097 30.6448 113.307 30.4448 113.524 30.3205L111.539 26.8475ZM112.018 28.3311L106.322 25.4831L104.533 29.0609L110.229 31.9089L112.018 28.3311ZM107.197 28.2055C107.82 27.0238 108.763 26.0373 110.095 25.249L108.057 21.807C106.146 22.9387 104.657 24.4482 103.659 26.3385L107.197 28.2055ZM110.095 25.249C111.333 24.516 112.973 24.088 115.124 24.088V20.088C112.453 20.088 110.062 20.62 108.057 21.807L110.095 25.249ZM115.124 24.088C116.678 24.088 117.974 24.3407 119.05 24.7947L120.605 21.1093C118.951 20.4113 117.11 20.088 115.124 20.088V24.088ZM119.05 24.7947C120.131 25.2508 120.891 25.8531 121.416 26.5682L124.64 24.1998C123.629 22.8243 122.255 21.8052 120.605 21.1093L119.05 24.7947ZM121.416 26.5682C121.906 27.2351 122.18 28.047 122.18 29.096H126.18C126.18 27.2864 125.686 25.6236 124.64 24.1998L121.416 26.5682ZM122.18 29.096C122.18 29.6427 122.108 30.1961 121.958 30.7602L125.825 31.7838C126.06 30.8972 126.18 30 126.18 29.096H122.18ZM121.945 30.8139C121.846 31.2362 121.61 31.7783 121.153 32.4466L124.454 34.7054C125.106 33.7524 125.597 32.7585 125.839 31.7301L121.945 30.8139ZM121.167 32.4261C120.731 33.0472 120.028 33.8198 119 34.7469L121.679 37.7171C122.827 36.6815 123.767 35.6834 124.44 34.7259L121.167 32.4261ZM118.993 34.7532L112.913 40.2892L115.606 43.2468L121.686 37.7108L118.993 34.7532ZM116.083 40.9454L114.899 38.3214L111.253 39.9666L112.437 42.5906L116.083 40.9454ZM113.076 41.144H124.692V37.144H113.076V41.144ZM122.692 39.144V45H126.692V39.144H122.692ZM124.692 43H106.74V47H124.692V43ZM133.729 44.68L133.018 46.5494L133.033 46.5554L133.049 46.5611L133.729 44.68ZM129.76 42.248L128.389 43.7036L128.396 43.7101L128.403 43.7165L129.76 42.248ZM127.169 38.536L125.333 39.3304L127.169 38.536ZM127.169 29.064L125.333 28.2696L127.169 29.064ZM129.792 25.352L128.435 23.8835L129.792 25.352ZM133.792 22.952L134.472 24.8331L134.479 24.8305L134.486 24.8278L133.792 22.952ZM144.833 23.208L144.039 25.044L144.047 25.0474L144.833 23.208ZM149.152 26.408L150.474 27.9088L151.919 26.6363L150.703 25.1441L149.152 26.408ZM144.32 30.664L142.81 31.9754L144.131 33.4961L145.642 32.1648L144.32 30.664ZM142.016 28.84L141.085 30.6098L141.113 30.6243L141.141 30.638L142.016 28.84ZM137.025 28.584L136.322 26.7113L136.312 26.715L136.303 26.7189L137.025 28.584ZM135.329 29.704L136.774 31.0864V31.0864L135.329 29.704ZM134.24 31.464L136.113 32.1662L134.24 31.464ZM134.24 36.104L132.361 36.7875L132.364 36.7969L132.368 36.8062L134.24 36.104ZM135.329 37.864L136.774 36.4816V36.4816L135.329 37.864ZM136.992 39.016L136.197 40.8511L136.234 40.8668L136.271 40.8811L136.992 39.016ZM141.697 38.984L142.344 40.8763L142.366 40.8688L142.388 40.8607L141.697 38.984ZM144.288 37.48L145.839 36.2167L144.612 34.7107L143.071 35.8934L144.288 37.48ZM148.512 42.664L149.628 44.3241L151.448 43.1009L150.063 41.4007L148.512 42.664ZM143.84 44.776L144.381 46.7017L143.84 44.776ZM141.952 41.704H139.952V43.4326L141.663 43.6829L141.952 41.704ZM141.952 33.192V31.192H139.952V33.192H141.952ZM148.512 33.192H150.512V31.192H148.512V33.192ZM148.512 42.664L148.223 44.6429L150.512 44.978V42.664H148.512ZM138.753 43.512C137.145 43.512 135.703 43.2667 134.408 42.7989L133.049 46.5611C134.826 47.2026 136.733 47.512 138.753 47.512V43.512ZM134.439 42.8106C133.151 42.3208 132.051 41.642 131.118 40.7795L128.403 43.7165C129.731 44.9447 131.276 45.8872 133.018 46.5494L134.439 42.8106ZM131.132 40.7924C130.225 39.9378 129.517 38.9268 129.004 37.7416L125.333 39.3304C126.057 41.0038 127.077 42.4676 128.389 43.7036L131.132 40.7924ZM129.004 37.7416C128.505 36.5892 128.24 35.2848 128.24 33.8H124.241C124.241 35.7712 124.595 37.6242 125.333 39.3304L129.004 37.7416ZM128.24 33.8C128.24 32.3152 128.505 31.0108 129.004 29.8584L125.333 28.2696C124.595 29.9758 124.241 31.8288 124.241 33.8H128.24ZM129.004 29.8584C129.513 28.6816 130.226 27.6747 131.15 26.8205L128.435 23.8835C127.097 25.12 126.061 26.5877 125.333 28.2696L129.004 29.8584ZM131.15 26.8205C132.073 25.9675 133.172 25.3026 134.472 24.8331L133.113 21.0709C131.341 21.7108 129.773 22.6458 128.435 23.8835L131.15 26.8205ZM134.486 24.8278C135.797 24.343 137.266 24.088 138.913 24.088V20.088C136.847 20.088 134.903 20.409 133.099 21.0762L134.486 24.8278ZM138.913 24.088C140.906 24.088 142.602 24.4231 144.039 25.0439L145.626 21.3721C143.607 20.4996 141.356 20.088 138.913 20.088V24.088ZM144.047 25.0474C145.518 25.6752 146.689 26.5519 147.602 27.6719L150.703 25.1441C149.354 23.4907 147.645 22.2341 145.618 21.3686L144.047 25.0474ZM147.831 24.9072L142.999 29.1632L145.642 32.1648L150.474 27.9088L147.831 24.9072ZM145.831 29.3526C144.978 28.371 144.002 27.5826 142.892 27.042L141.141 30.638C141.695 30.9081 142.255 31.3357 142.81 31.9754L145.831 29.3526ZM142.948 27.0702C141.824 26.4784 140.592 26.2 139.296 26.2V30.2C140.006 30.2 140.588 30.3483 141.085 30.6098L142.948 27.0702ZM139.296 26.2C138.258 26.2 137.259 26.3601 136.322 26.7113L137.727 30.4567C138.156 30.2959 138.671 30.2 139.296 30.2V26.2ZM136.303 26.7189C135.38 27.0759 134.564 27.6094 133.883 28.3216L136.774 31.0864C137.031 30.8172 137.346 30.6041 137.746 30.4491L136.303 26.7189ZM133.883 28.3216C133.213 29.0218 132.712 29.8447 132.368 30.7618L136.113 32.1662C136.281 31.718 136.505 31.3675 136.774 31.0864L133.883 28.3216ZM132.368 30.7618C132.013 31.7088 131.857 32.7321 131.857 33.8H135.857C135.857 33.1185 135.956 32.5845 136.113 32.1662L132.368 30.7618ZM131.857 33.8C131.857 34.8394 132.017 35.8415 132.361 36.7875L136.12 35.4205C135.952 34.9585 135.857 34.4246 135.857 33.8H131.857ZM132.368 36.8062C132.712 37.7233 133.213 38.5462 133.883 39.2464L136.774 36.4816C136.505 36.2005 136.281 35.85 136.113 35.4018L132.368 36.8062ZM133.883 39.2464C134.542 39.9351 135.319 40.4707 136.197 40.8511L137.788 37.1809C137.386 37.0066 137.054 36.7742 136.774 36.4816L133.883 39.2464ZM136.271 40.8811C137.193 41.2381 138.178 41.4 139.201 41.4V37.4C138.602 37.4 138.115 37.3059 137.714 37.1509L136.271 40.8811ZM139.201 41.4C140.275 41.4 141.326 41.2247 142.344 40.8763L141.049 37.0917C140.446 37.298 139.833 37.4 139.201 37.4V41.4ZM142.388 40.8607C143.439 40.4734 144.479 39.8545 145.506 39.0666L143.071 35.8934C142.263 36.5135 141.575 36.8973 141.005 37.1073L142.388 40.8607ZM142.738 38.7433L146.962 43.9273L150.063 41.4007L145.839 36.2167L142.738 38.7433ZM147.397 41.0039C146.226 41.791 144.866 42.4111 143.3 42.8503L144.381 46.7017C146.313 46.1596 148.069 45.3717 149.628 44.3241L147.397 41.0039ZM143.3 42.8503C141.708 43.2968 140.194 43.512 138.753 43.512V47.512C140.596 47.512 142.474 47.2365 144.381 46.7017L143.3 42.8503ZM143.952 41.704V33.192H139.952V41.704H143.952ZM141.952 35.192H148.512V31.192H141.952V35.192ZM146.512 33.192V42.664H150.512V33.192H146.512ZM148.802 40.6851L142.242 39.7251L141.663 43.6829L148.223 44.6429L148.802 40.6851ZM155.57 44.136L154.676 45.9249L154.685 45.9296L155.57 44.136ZM151.89 40.904L150.199 41.971L150.206 41.9829L151.89 40.904ZM151.858 31.528L150.174 30.4491L150.168 30.4585L150.162 30.468L151.858 31.528ZM155.41 28.328L154.506 26.5442L154.496 26.5494L155.41 28.328ZM165.266 28.2L164.415 30.0097L164.425 30.0144L165.266 28.2ZM168.786 31.24L167.11 32.3309L167.116 32.3402L167.122 32.3494L168.786 31.24ZM170.098 37.096L172.093 37.2385L172.094 37.229L170.098 37.096ZM170.034 37.928V39.928H171.875L172.027 38.0941L170.034 37.928ZM156.562 37.928H154.562V39.928H156.562V37.928ZM156.562 34.44V32.44H154.562V34.44H156.562ZM166.194 34.44L166.84 36.3329L166.194 32.44V34.44ZM163.474 35.368H161.474V38.1635L164.12 37.2609L163.474 35.368ZM163.09 33.64L161.286 34.5029L161.309 34.551L161.334 34.5977L163.09 33.64ZM162.098 32.52L161.008 34.1969L161.038 34.2165L161.069 34.235L162.098 32.52ZM158.994 32.52L160.023 34.235L160.035 34.2278L160.047 34.2205L158.994 32.52ZM158.002 33.64L159.791 34.5344L159.799 34.5187L159.807 34.5029L158.002 33.64ZM158.098 38.376L159.843 37.3988L158.098 38.376ZM159.378 39.592L158.484 41.3809L158.512 41.3948L158.54 41.4079L159.378 39.592ZM163.378 39.656L162.635 37.799L162.622 37.8044L162.609 37.8098L163.378 39.656ZM165.042 38.696L166.462 37.2878L165.243 36.0582L163.852 37.0889L165.042 38.696ZM168.818 42.504L170.283 43.8662L171.591 42.4598L170.238 41.0958L168.818 42.504ZM165.65 44.616L166.36 46.486L166.368 46.4827L166.377 46.4794L165.65 44.616ZM161.17 43.32C159.284 43.32 157.731 42.9719 156.455 42.3424L154.685 45.9296C156.609 46.8788 158.79 47.32 161.17 47.32V43.32ZM156.465 42.3471C155.179 41.7043 154.238 40.8604 153.574 39.8251L150.206 41.9829C151.292 43.6783 152.804 44.9891 154.676 45.9249L156.465 42.3471ZM153.582 39.837C152.92 38.7873 152.578 37.6037 152.578 36.232H148.578C148.578 38.3163 149.111 40.2473 150.199 41.971L153.582 39.837ZM152.578 36.232C152.578 34.7975 152.919 33.6042 153.554 32.588L150.162 30.468C149.091 32.1825 148.578 34.1252 148.578 36.232H152.578ZM153.542 32.6069C154.22 31.5494 155.134 30.7193 156.325 30.1066L154.496 26.5494C152.7 27.4727 151.246 28.7759 150.174 30.4491L153.542 32.6069ZM156.315 30.1118C157.521 29.5004 158.902 29.176 160.498 29.176V25.176C158.34 25.176 156.329 25.6196 154.506 26.5442L156.315 30.1118ZM160.498 29.176C161.955 29.176 163.251 29.4619 164.415 30.0096L166.118 26.3904C164.38 25.5728 162.497 25.176 160.498 25.176V29.176ZM164.425 30.0144C165.56 30.541 166.443 31.3056 167.11 32.3309L170.463 30.1491C169.38 28.4864 167.916 27.2243 166.108 26.3856L164.425 30.0144ZM167.122 32.3494C167.754 33.2967 168.13 34.552 168.13 36.232H172.13C172.13 33.944 171.611 31.8713 170.45 30.1306L167.122 32.3494ZM168.13 36.232C168.13 36.4342 168.122 36.6767 168.103 36.963L172.094 37.229C172.117 36.8753 172.13 36.5418 172.13 36.232H168.13ZM168.103 36.9535C168.082 37.2456 168.062 37.5149 168.041 37.7619L172.027 38.0941C172.049 37.8291 172.071 37.5438 172.093 37.2385L168.103 36.9535ZM170.034 35.928H156.562V39.928H170.034V35.928ZM158.562 37.928V34.44H154.562V37.928H158.562ZM156.562 36.44H166.194V32.44H156.562V36.44ZM165.548 32.5471L162.828 33.4751L164.12 37.2609L166.84 36.3329L165.548 32.5471ZM165.474 35.368C165.474 34.4412 165.301 33.5157 164.846 32.6823L161.334 34.5977C161.392 34.7029 161.474 34.9295 161.474 35.368H165.474ZM164.895 32.7771C164.507 31.9669 163.922 31.2816 163.127 30.805L161.069 34.235C161.128 34.2704 161.204 34.3318 161.286 34.5029L164.895 32.7771ZM163.188 30.8431C162.384 30.3204 161.478 30.104 160.562 30.104V34.104C160.841 34.104 160.959 34.1649 161.008 34.1969L163.188 30.8431ZM160.562 30.104C159.644 30.104 158.746 30.3212 157.942 30.8195L160.047 34.2205C160.138 34.1642 160.286 34.104 160.562 34.104V30.104ZM157.965 30.805C157.171 31.2816 156.585 31.9669 156.198 32.7771L159.807 34.5029C159.888 34.3318 159.964 34.2704 160.023 34.235L157.965 30.805ZM156.213 32.7456C155.805 33.5633 155.65 34.4649 155.65 35.368H159.65C159.65 34.9057 159.731 34.6554 159.791 34.5344L156.213 32.7456ZM155.65 35.368V36.456H159.65V35.368H155.65ZM155.65 36.456C155.65 37.4696 155.854 38.4619 156.353 39.3532L159.843 37.3988C159.745 37.2234 159.65 36.9357 159.65 36.456H155.65ZM156.353 39.3532C156.851 40.2416 157.576 40.9271 158.484 41.3809L160.273 37.8031C160.071 37.7023 159.943 37.5771 159.843 37.3988L156.353 39.3532ZM158.54 41.4079C159.423 41.8152 160.397 41.976 161.394 41.976V37.976C160.813 37.976 160.443 37.8808 160.216 37.7761L158.54 41.4079ZM161.394 41.976C162.358 41.976 163.306 41.8526 164.147 41.5022L162.609 37.8098C162.426 37.8861 162.052 37.976 161.394 37.976V41.976ZM164.121 41.513C164.847 41.2224 165.551 40.8079 166.233 40.3031L163.852 37.0889C163.381 37.4375 162.976 37.6629 162.635 37.799L164.121 41.513ZM163.622 40.1042L167.398 43.9122L170.238 41.0958L166.462 37.2878L163.622 40.1042ZM167.354 41.1418C166.721 41.8217 165.924 42.3626 164.924 42.7526L166.377 46.4794C167.894 45.8881 169.208 45.021 170.283 43.8662L167.354 41.1418ZM164.941 42.746C163.99 43.1067 162.751 43.32 161.17 43.32V47.32C163.088 47.32 164.836 47.064 166.36 46.486L164.941 42.746ZM175.229 43.592L173.913 45.0986L173.92 45.1046L173.927 45.1105L175.229 43.592ZM173.212 23.56V21.56H171.212V23.56H173.212ZM180.445 23.56H182.445V21.56H180.445V23.56ZM180.861 39.4L179.395 40.7609L179.42 40.788L179.446 40.8142L180.861 39.4ZM183.581 39.368L185.472 38.7175L184.619 36.2391L182.454 37.7155L183.581 39.368ZM185.309 44.392L186.308 46.1244L187.736 45.3005L187.2 43.7415L185.309 44.392ZM183.292 45.096L182.921 43.1308L182.911 43.1328L183.292 45.096ZM170.812 33.736H168.812V35.736H170.812V33.736ZM170.812 28.456V26.456H168.812V28.456H170.812ZM184.029 28.456H186.029V26.456H184.029V28.456ZM184.029 33.736V35.736H186.029V33.736H184.029ZM180.861 43.32C178.754 43.32 177.399 42.8181 176.53 42.0735L173.927 45.1105C175.746 46.6699 178.146 47.32 180.861 47.32V43.32ZM176.544 42.0854C175.773 41.4126 175.212 40.2623 175.212 38.216H171.212C171.212 40.991 171.996 43.4248 173.913 45.0986L176.544 42.0854ZM175.212 38.216V23.56H171.212V38.216H175.212ZM173.212 25.56H180.445V21.56H173.212V25.56ZM178.445 23.56V38.152H182.445V23.56H178.445ZM178.445 38.152C178.445 39.03 178.679 39.9896 179.395 40.7609L182.326 38.0391C182.359 38.0742 182.386 38.1115 182.407 38.1479C182.428 38.1839 182.44 38.2133 182.446 38.2315C182.457 38.2661 182.445 38.2486 182.445 38.152H178.445ZM179.446 40.8142C180.124 41.4922 180.997 41.848 181.949 41.848V37.848C181.973 37.848 182.037 37.8534 182.118 37.8866C182.199 37.92 182.252 37.9629 182.275 37.9858L179.446 40.8142ZM181.949 41.848C182.932 41.848 183.876 41.5871 184.707 41.0205L182.454 37.7155C182.346 37.7889 182.203 37.848 181.949 37.848V41.848ZM181.689 40.0185L183.417 45.0425L187.2 43.7415L185.472 38.7175L181.689 40.0185ZM184.309 42.6596C183.991 42.8429 183.543 43.0131 182.921 43.1309L183.664 47.0611C184.621 46.8802 185.516 46.5811 186.308 46.1244L184.309 42.6596ZM182.911 43.1328C182.279 43.2556 181.597 43.32 180.861 43.32V47.32C181.831 47.32 182.77 47.2351 183.674 47.0592L182.911 43.1328ZM172.812 33.736V28.456H168.812V33.736H172.812ZM170.812 30.456H184.029V26.456H170.812V30.456ZM182.029 28.456V33.736H186.029V28.456H182.029ZM184.029 31.736H170.812V35.736H184.029V31.736ZM202.939 28.008L202.031 29.7898L202.045 29.7969L202.059 29.8038L202.939 28.008ZM205.499 30.536L203.737 31.4823L203.744 31.4948L203.751 31.5073L205.499 30.536ZM206.459 45V47H208.459V45H206.459ZM199.227 45H197.227V47H199.227V45ZM198.651 33.96L197.103 35.2265L197.118 35.2442L197.133 35.2616L198.651 33.96ZM195.707 33.608L196.639 35.3778L196.655 35.3693L196.671 35.3604L195.707 33.608ZM194.715 34.696L192.926 33.8016L192.911 33.8319L192.897 33.8627L194.715 34.696ZM194.363 45V47H196.363V45H194.363ZM187.131 45H185.131V47H187.131V45ZM187.131 21.256V19.256H185.131V21.256H187.131ZM194.363 21.256H196.363V19.256H194.363V21.256ZM194.363 32.616L193.066 34.1385L196.363 36.947V32.616H194.363ZM192.635 31.144L190.858 30.2267L190.13 31.6372L191.338 32.6665L192.635 31.144ZM195.387 28.168L194.405 26.4257L194.398 26.4296L194.392 26.4335L195.387 28.168ZM199.291 29.176C200.352 29.176 201.252 29.3925 202.031 29.7898L203.848 26.2262C202.451 25.5141 200.919 25.176 199.291 25.176V29.176ZM202.059 29.8038C202.741 30.1383 203.3 30.6679 203.737 31.4823L207.261 29.5897C206.461 28.1001 205.313 26.9444 203.82 26.2122L202.059 29.8038ZM203.751 31.5073C204.174 32.2683 204.459 33.3947 204.459 35.016H208.459C208.459 32.9679 208.105 31.1077 207.248 29.5647L203.751 31.5073ZM204.459 35.016V45H208.459V35.016H204.459ZM206.459 43H199.227V47H206.459V43ZM201.227 45V36.264H197.227V45H201.227ZM201.227 36.264C201.227 35.0547 201.036 33.6696 200.17 32.6584L197.133 35.2616C197.066 35.1835 197.098 35.1761 197.143 35.3571C197.188 35.5358 197.227 35.8273 197.227 36.264H201.227ZM200.199 32.6935C199.398 31.7141 198.283 31.256 197.083 31.256V35.256C197.13 35.256 197.156 35.2602 197.164 35.2618C197.172 35.2634 197.166 35.2629 197.152 35.2565C197.145 35.2535 197.138 35.2497 197.13 35.2452C197.123 35.2406 197.116 35.236 197.111 35.2317C197.099 35.2226 197.097 35.2187 197.103 35.2265L200.199 32.6935ZM197.083 31.256C196.258 31.256 195.468 31.4572 194.743 31.8556L196.671 35.3604C196.8 35.2895 196.927 35.256 197.083 35.256V31.256ZM194.776 31.8382C193.917 32.2904 193.322 33.0097 192.926 33.8016L196.504 35.5904C196.563 35.4724 196.61 35.4125 196.633 35.3875C196.653 35.3653 196.656 35.369 196.639 35.3778L194.776 31.8382ZM192.897 33.8627C192.495 34.7406 192.363 35.7566 192.363 36.776H196.363C196.363 36.0461 196.466 35.6754 196.533 35.5293L192.897 33.8627ZM192.363 36.776V45H196.363V36.776H192.363ZM194.363 43H187.131V47H194.363V43ZM189.131 45V21.256H185.131V45H189.131ZM187.131 23.256H194.363V19.256H187.131V23.256ZM192.363 21.256V32.616H196.363V21.256H192.363ZM195.66 31.0935L193.932 29.6215L191.338 32.6665L193.066 34.1385L195.66 31.0935ZM194.412 32.0613C194.941 31.038 195.604 30.3498 196.383 29.9025L194.392 26.4335C192.867 27.3089 191.695 28.6047 190.858 30.2267L194.412 32.0613ZM196.369 29.9103C197.224 29.4283 198.184 29.176 199.291 29.176V25.176C197.54 25.176 195.897 25.585 194.405 26.4257L196.369 29.9103ZM213.977 44.136L213.082 45.9249L213.092 45.9296L213.977 44.136ZM210.296 40.904L208.605 41.971L208.612 41.9829L210.296 40.904ZM210.264 31.528L208.58 30.4491L208.574 30.4585L208.568 30.468L210.264 31.528ZM213.816 28.328L212.912 26.5442L212.902 26.5494L213.816 28.328ZM223.673 28.2L222.821 30.0097L222.831 30.0144L223.673 28.2ZM227.193 31.24L225.516 32.3309L225.522 32.3402L225.528 32.3494L227.193 31.24ZM228.505 37.096L230.499 37.2385L230.5 37.229L228.505 37.096ZM228.441 37.928V39.928H230.281L230.434 38.0941L228.441 37.928ZM214.969 37.928H212.969V39.928H214.969V37.928ZM214.969 34.44V32.44H212.969V34.44H214.969ZM224.6 34.44L225.246 36.3329L224.6 32.44V34.44ZM221.88 35.368H219.88V38.1635L222.526 37.2609L221.88 35.368ZM221.497 33.64L219.692 34.5029L219.715 34.551L219.741 34.5977L221.497 33.64ZM220.505 32.52L219.415 34.1969L219.445 34.2165L219.476 34.235L220.505 32.52ZM217.4 32.52L218.429 34.235L218.441 34.2278L218.453 34.2205L217.4 32.52ZM216.409 33.64L218.197 34.5344L218.205 34.5187L218.213 34.5029L216.409 33.64ZM216.505 38.376L218.25 37.3988L216.505 38.376ZM217.785 39.592L216.89 41.3809L216.918 41.3948L216.946 41.4079L217.785 39.592ZM221.785 39.656L221.042 37.799L221.028 37.8044L221.015 37.8098L221.785 39.656ZM223.449 38.696L224.869 37.2878L223.649 36.0582L222.258 37.0889L223.449 38.696ZM227.225 42.504L228.689 43.8662L229.997 42.4598L228.645 41.0958L227.225 42.504ZM224.057 44.616L224.766 46.486L224.774 46.4827L224.783 46.4794L224.057 44.616ZM219.577 43.32C217.691 43.32 216.137 42.9719 214.861 42.3424L213.092 45.9296C215.016 46.8788 217.196 47.32 219.577 47.32V43.32ZM214.871 42.3471C213.585 41.7043 212.644 40.8604 211.981 39.8251L208.612 41.9829C209.699 43.6783 211.211 44.9891 213.082 45.9249L214.871 42.3471ZM211.988 39.837C211.326 38.7873 210.984 37.6037 210.984 36.232H206.984C206.984 38.3163 207.518 40.2473 208.605 41.971L211.988 39.837ZM210.984 36.232C210.984 34.7975 211.325 33.6042 211.96 32.588L208.568 30.468C207.497 32.1825 206.984 34.1252 206.984 36.232H210.984ZM211.949 32.6069C212.626 31.5494 213.54 30.7193 214.731 30.1066L212.902 26.5494C211.106 27.4727 209.652 28.7759 208.58 30.4491L211.949 32.6069ZM214.721 30.1118C215.927 29.5004 217.308 29.176 218.904 29.176V25.176C216.747 25.176 214.736 25.6196 212.912 26.5442L214.721 30.1118ZM218.904 29.176C220.361 29.176 221.657 29.4619 222.821 30.0096L224.524 26.3904C222.787 25.5728 220.904 25.176 218.904 25.176V29.176ZM222.831 30.0144C223.967 30.541 224.849 31.3056 225.516 32.3309L228.869 30.1491C227.787 28.4864 226.322 27.2243 224.514 26.3856L222.831 30.0144ZM225.528 32.3494C226.16 33.2967 226.536 34.552 226.536 36.232H230.536C230.536 33.944 230.017 31.8713 228.857 30.1306L225.528 32.3494ZM226.536 36.232C226.536 36.4342 226.528 36.6767 226.509 36.963L230.5 37.229C230.524 36.8753 230.536 36.5418 230.536 36.232H226.536ZM226.51 36.9535C226.489 37.2456 226.468 37.5149 226.447 37.7619L230.434 38.0941C230.456 37.8291 230.478 37.5438 230.499 37.2385L226.51 36.9535ZM228.441 35.928H214.969V39.928H228.441V35.928ZM216.969 37.928V34.44H212.969V37.928H216.969ZM214.969 36.44H224.6V32.44H214.969V36.44ZM223.955 32.5471L221.235 33.4751L222.526 37.2609L225.246 36.3329L223.955 32.5471ZM223.88 35.368C223.88 34.4412 223.707 33.5157 223.252 32.6823L219.741 34.5977C219.798 34.7029 219.88 34.9295 219.88 35.368H223.88ZM223.301 32.7771C222.913 31.9669 222.328 31.2816 221.533 30.805L219.476 34.235C219.535 34.2704 219.61 34.3318 219.692 34.5029L223.301 32.7771ZM221.594 30.8431C220.79 30.3204 219.884 30.104 218.969 30.104V34.104C219.247 34.104 219.365 34.1649 219.415 34.1969L221.594 30.8431ZM218.969 30.104C218.05 30.104 217.153 30.3212 216.348 30.8195L218.453 34.2205C218.544 34.1642 218.692 34.104 218.969 34.104V30.104ZM216.372 30.805C215.577 31.2816 214.992 31.9669 214.604 32.7771L218.213 34.5029C218.295 34.3318 218.37 34.2704 218.429 34.235L216.372 30.805ZM214.62 32.7456C214.211 33.5633 214.057 34.4649 214.057 35.368H218.057C218.057 34.9057 218.137 34.6554 218.197 34.5344L214.62 32.7456ZM214.057 35.368V36.456H218.057V35.368H214.057ZM214.057 36.456C214.057 37.4696 214.26 38.4619 214.759 39.3532L218.25 37.3988C218.151 37.2234 218.057 36.9357 218.057 36.456H214.057ZM214.759 39.3532C215.257 40.2416 215.983 40.9271 216.89 41.3809L218.679 37.8031C218.477 37.7023 218.349 37.5771 218.25 37.3988L214.759 39.3532ZM216.946 41.4079C217.829 41.8152 218.803 41.976 219.801 41.976V37.976C219.219 37.976 218.85 37.8808 218.623 37.7761L216.946 41.4079ZM219.801 41.976C220.764 41.976 221.713 41.8526 222.554 41.5022L221.015 37.8098C220.832 37.8861 220.459 37.976 219.801 37.976V41.976ZM222.527 41.513C223.254 41.2224 223.958 40.8079 224.639 40.3031L222.258 37.0889C221.787 37.4375 221.382 37.6629 221.042 37.799L222.527 41.513ZM222.028 40.1042L225.804 43.9122L228.645 41.0958L224.869 37.2878L222.028 40.1042ZM225.76 41.1418C225.128 41.8217 224.331 42.3626 223.33 42.7526L224.783 46.4794C226.3 45.8881 227.615 45.021 228.689 43.8662L225.76 41.1418ZM223.347 42.746C222.396 43.1067 221.157 43.32 219.577 43.32V47.32C221.495 47.32 223.242 47.064 224.766 46.486L223.347 42.746ZM230.819 45H228.819V47H230.819V45ZM230.819 27.496V25.496H228.819V27.496H230.819ZM237.699 27.496H239.699V25.496H237.699V27.496ZM237.699 32.776L236.095 33.9705L239.699 38.8103V32.776H237.699ZM236.579 31.272L234.716 30.5443L234.312 31.5772L234.975 32.4665L236.579 31.272ZM239.139 28.2L238.133 26.4713L239.139 28.2ZM243.363 27.176H245.363V25.176H243.363V27.176ZM243.363 33.576L243.098 35.5585L245.363 35.8604V33.576H243.363ZM242.499 33.48L242.318 35.4718L242.325 35.4725L242.333 35.4731L242.499 33.48ZM239.075 34.312L240.336 35.8642L240.341 35.8599L239.075 34.312ZM238.051 45V47H240.051V45H238.051ZM232.819 45V27.496H228.819V45H232.819ZM230.819 29.496H237.699V25.496H230.819V29.496ZM235.699 27.496V32.776H239.699V27.496H235.699ZM239.303 31.5815L238.183 30.0775L234.975 32.4665L236.095 33.9705L239.303 31.5815ZM238.442 31.9997C238.825 31.0194 239.394 30.3655 240.145 29.9287L238.133 26.4713C236.537 27.3999 235.4 28.7939 234.716 30.5443L238.442 31.9997ZM240.145 29.9287C240.954 29.4576 241.999 29.176 243.363 29.176V25.176C241.441 25.176 239.67 25.577 238.133 26.4713L240.145 29.9287ZM241.363 27.176V33.576H245.363V27.176H241.363ZM243.627 31.5935C243.282 31.5476 242.961 31.5116 242.665 31.4869L242.333 35.4731C242.549 35.4911 242.803 35.5191 243.098 35.5585L243.627 31.5935ZM242.68 31.4882C242.38 31.461 242.074 31.448 241.763 31.448V35.448C241.963 35.448 242.148 35.4564 242.318 35.4718L242.68 31.4882ZM241.763 31.448C240.307 31.448 238.936 31.8412 237.808 32.7641L240.341 35.8599C240.621 35.6308 241.042 35.448 241.763 35.448V31.448ZM237.814 32.7598C236.448 33.8694 236.051 35.5827 236.051 37.224H240.051C240.051 36.6832 240.119 36.3319 240.193 36.1195C240.263 35.9225 240.327 35.8716 240.336 35.8642L237.814 32.7598ZM236.051 37.224V45H240.051V37.224H236.051ZM238.051 43H230.819V47H238.051V43Z" fill="white" mask="url(#path-3-outside-1_18_99)"/>
</svg>
