<svg width="70" height="53" viewBox="0 0 70 53" fill="none" xmlns="http://www.w3.org/2000/svg">
<path opacity="0.5" d="M53.75 22.5C53.75 32.5792 45.5792 40.75 35.5 40.75C25.4208 40.75 17.25 32.5792 17.25 22.5C17.25 12.4208 25.4208 4.25 35.5 4.25C45.5792 4.25 53.75 12.4208 53.75 22.5Z" fill="#68BAF5" stroke="#45CB85"/>
<path d="M29.0781 17.7131C28.7275 13.8056 25.7144 10.1644 24.25 8.83312L23.4437 8.13937C26.818 5.29833 31.089 3.74337 35.5 3.75C39.6512 3.75 43.4875 5.1 46.5925 7.38C47.0312 8.71312 46.195 11.4975 45.3175 12.8287C44.9987 13.3106 44.2787 13.9106 43.4875 14.4787C41.7062 15.7594 39.4562 16.3912 38.3125 18.75C38.0266 19.3439 37.9712 20.0226 38.1569 20.655C38.2694 21.0675 38.3444 21.5156 38.3444 21.9525C38.3481 23.3681 36.9156 24.39 35.5 24.375C31.8175 24.3356 29.4062 21.3675 29.0781 17.7131ZM38.1944 34.2675C40.0469 30.7762 46.2212 30.7762 46.2212 30.7762C52.6562 30.7087 53.5262 26.8013 54.1075 24.8269C53.5948 28.9165 51.7497 32.7235 48.8572 35.6597C45.9647 38.596 42.1858 40.498 38.1044 41.0719C37.4987 39.7969 36.7825 36.9281 38.1944 34.2675Z" fill="#45CB85"/>
<mask id="path-3-outside-1_371_1495" maskUnits="userSpaceOnUse" x="0" y="20" width="70" height="28" fill="black">
<rect fill="white" y="20" width="70" height="28"/>
<path d="M8.688 45V28.456H2.128V22.6H22.8V28.456H16.24V45H8.688ZM56.7838 45.512C54.9704 45.512 53.2958 45.2347 51.7598 44.68C50.2451 44.104 48.9224 43.2933 47.7918 42.248C46.6824 41.2027 45.8184 39.9653 45.1998 38.536C44.5811 37.1067 44.2718 35.528 44.2718 33.8C44.2718 32.072 44.5811 30.4933 45.1998 29.064C45.8184 27.6347 46.6931 26.3973 47.8238 25.352C48.9544 24.3067 50.2878 23.5067 51.8238 22.952C53.3811 22.376 55.0878 22.088 56.9438 22.088C59.1624 22.088 61.1358 22.4613 62.8638 23.208C64.6131 23.9547 66.0531 25.0213 67.1838 26.408L62.3518 30.664C61.6478 29.8533 60.8798 29.2453 60.0478 28.84C59.2371 28.4133 58.3304 28.2 57.3278 28.2C56.4958 28.2 55.7384 28.328 55.0558 28.584C54.3944 28.84 53.8291 29.2133 53.3598 29.704C52.8904 30.1947 52.5278 30.7813 52.2718 31.464C52.0158 32.1467 51.8878 32.9253 51.8878 33.8C51.8878 34.632 52.0158 35.4 52.2718 36.104C52.5278 36.7867 52.8904 37.3733 53.3598 37.864C53.8291 38.3547 54.3838 38.7387 55.0238 39.016C55.6851 39.272 56.4211 39.4 57.2318 39.4C58.0851 39.4 58.9171 39.2613 59.7278 38.984C60.5384 38.6853 61.4024 38.184 62.3198 37.48L66.5438 42.664C65.1784 43.5813 63.6211 44.2853 61.8718 44.776C60.1224 45.2667 58.4264 45.512 56.7838 45.512ZM59.9838 41.704V33.192H66.5438V42.664L59.9838 41.704Z"/>
<path d="M24.771 45V40.36L32.867 32.872C33.379 32.3813 33.7523 31.9547 33.987 31.592C34.243 31.2293 34.4137 30.9093 34.499 30.632C34.5843 30.3333 34.627 30.056 34.627 29.8C34.627 29.2453 34.4457 28.8187 34.083 28.52C33.7203 28.2 33.1763 28.04 32.451 28.04C31.7897 28.04 31.1603 28.2213 30.563 28.584C29.9657 28.9253 29.4963 29.4373 29.155 30.12L23.459 27.272C24.2697 25.736 25.4857 24.488 27.107 23.528C28.7283 22.568 30.7443 22.088 33.155 22.088C34.9257 22.088 36.4937 22.376 37.859 22.952C39.2243 23.528 40.291 24.3387 41.059 25.384C41.827 26.4293 42.211 27.6667 42.211 29.096C42.211 29.8213 42.115 30.5467 41.923 31.272C41.7523 31.9973 41.3897 32.7653 40.835 33.576C40.2803 34.3653 39.459 35.2507 38.371 36.232L32.291 41.768L31.107 39.144H42.723V45H24.771Z"/>
</mask>
<path d="M8.688 45V28.456H2.128V22.6H22.8V28.456H16.24V45H8.688ZM56.7838 45.512C54.9704 45.512 53.2958 45.2347 51.7598 44.68C50.2451 44.104 48.9224 43.2933 47.7918 42.248C46.6824 41.2027 45.8184 39.9653 45.1998 38.536C44.5811 37.1067 44.2718 35.528 44.2718 33.8C44.2718 32.072 44.5811 30.4933 45.1998 29.064C45.8184 27.6347 46.6931 26.3973 47.8238 25.352C48.9544 24.3067 50.2878 23.5067 51.8238 22.952C53.3811 22.376 55.0878 22.088 56.9438 22.088C59.1624 22.088 61.1358 22.4613 62.8638 23.208C64.6131 23.9547 66.0531 25.0213 67.1838 26.408L62.3518 30.664C61.6478 29.8533 60.8798 29.2453 60.0478 28.84C59.2371 28.4133 58.3304 28.2 57.3278 28.2C56.4958 28.2 55.7384 28.328 55.0558 28.584C54.3944 28.84 53.8291 29.2133 53.3598 29.704C52.8904 30.1947 52.5278 30.7813 52.2718 31.464C52.0158 32.1467 51.8878 32.9253 51.8878 33.8C51.8878 34.632 52.0158 35.4 52.2718 36.104C52.5278 36.7867 52.8904 37.3733 53.3598 37.864C53.8291 38.3547 54.3838 38.7387 55.0238 39.016C55.6851 39.272 56.4211 39.4 57.2318 39.4C58.0851 39.4 58.9171 39.2613 59.7278 38.984C60.5384 38.6853 61.4024 38.184 62.3198 37.48L66.5438 42.664C65.1784 43.5813 63.6211 44.2853 61.8718 44.776C60.1224 45.2667 58.4264 45.512 56.7838 45.512ZM59.9838 41.704V33.192H66.5438V42.664L59.9838 41.704Z" fill="#68BAF5"/>
<path d="M24.771 45V40.36L32.867 32.872C33.379 32.3813 33.7523 31.9547 33.987 31.592C34.243 31.2293 34.4137 30.9093 34.499 30.632C34.5843 30.3333 34.627 30.056 34.627 29.8C34.627 29.2453 34.4457 28.8187 34.083 28.52C33.7203 28.2 33.1763 28.04 32.451 28.04C31.7897 28.04 31.1603 28.2213 30.563 28.584C29.9657 28.9253 29.4963 29.4373 29.155 30.12L23.459 27.272C24.2697 25.736 25.4857 24.488 27.107 23.528C28.7283 22.568 30.7443 22.088 33.155 22.088C34.9257 22.088 36.4937 22.376 37.859 22.952C39.2243 23.528 40.291 24.3387 41.059 25.384C41.827 26.4293 42.211 27.6667 42.211 29.096C42.211 29.8213 42.115 30.5467 41.923 31.272C41.7523 31.9973 41.3897 32.7653 40.835 33.576C40.2803 34.3653 39.459 35.2507 38.371 36.232L32.291 41.768L31.107 39.144H42.723V45H24.771Z" fill="#45CB85"/>
<path d="M8.688 45H6.688V47H8.688V45ZM8.688 28.456H10.688V26.456H8.688V28.456ZM2.128 28.456H0.128V30.456H2.128V28.456ZM2.128 22.6V20.6H0.128V22.6H2.128ZM22.8 22.6H24.8V20.6H22.8V22.6ZM22.8 28.456V30.456H24.8V28.456H22.8ZM16.24 28.456V26.456H14.24V28.456H16.24ZM16.24 45V47H18.24V45H16.24ZM10.688 45V28.456H6.688V45H10.688ZM8.688 26.456H2.128V30.456H8.688V26.456ZM4.128 28.456V22.6H0.128V28.456H4.128ZM2.128 24.6H22.8V20.6H2.128V24.6ZM20.8 22.6V28.456H24.8V22.6H20.8ZM22.8 26.456H16.24V30.456H22.8V26.456ZM14.24 28.456V45H18.24V28.456H14.24ZM16.24 43H8.688V47H16.24V43ZM24.771 45H22.771V47H24.771V45ZM24.771 40.36L23.413 38.8917L22.771 39.4855V40.36H24.771ZM32.867 32.872L34.225 34.3403L34.238 34.3282L34.2508 34.316L32.867 32.872ZM33.987 31.592L32.3531 30.4386L32.3298 30.4716L32.3079 30.5055L33.987 31.592ZM34.499 30.632L36.4106 31.2202L36.4165 31.2009L36.422 31.1814L34.499 30.632ZM34.083 28.52L32.7598 30.0197L32.7853 30.0422L32.8116 30.0639L34.083 28.52ZM30.563 28.584L31.5553 30.3205L31.5783 30.3073L31.601 30.2936L30.563 28.584ZM29.155 30.12L28.2606 31.9089L30.0494 32.8033L30.9439 31.0144L29.155 30.12ZM23.459 27.272L21.6902 26.3385L20.736 28.1466L22.5646 29.0609L23.459 27.272ZM27.107 23.528L28.126 25.249L28.126 25.249L27.107 23.528ZM37.859 22.952L37.0816 24.7947L37.0816 24.7947L37.859 22.952ZM41.059 25.384L39.4472 26.5682L39.4472 26.5682L41.059 25.384ZM41.923 31.272L39.9896 30.7602L39.9825 30.787L39.9762 30.8139L41.923 31.272ZM40.835 33.576L42.4714 34.7259L42.4786 34.7157L42.4856 34.7054L40.835 33.576ZM38.371 36.232L37.0314 34.7468L37.0245 34.7532L38.371 36.232ZM32.291 41.768L30.468 42.5906L31.6009 45.1012L33.6375 43.2468L32.291 41.768ZM31.107 39.144V37.144H28.0104L29.284 39.9666L31.107 39.144ZM42.723 39.144H44.723V37.144H42.723V39.144ZM42.723 45V47H44.723V45H42.723ZM26.771 45V40.36H22.771V45H26.771ZM26.129 41.8283L34.225 34.3403L31.509 31.4037L23.413 38.8917L26.129 41.8283ZM34.2508 34.316C34.8132 33.777 35.3109 33.2275 35.6661 32.6785L32.3079 30.5055C32.1938 30.6818 31.9448 30.9856 31.4832 31.428L34.2508 34.316ZM35.6209 32.7454C35.9413 32.2915 36.2394 31.7765 36.4106 31.2202L32.5874 30.0438C32.5903 30.0346 32.5817 30.0649 32.5423 30.1388C32.5036 30.2114 32.4433 30.3108 32.3531 30.4386L35.6209 32.7454ZM36.422 31.1814C36.548 30.7407 36.627 30.2764 36.627 29.8H32.627C32.627 29.8356 32.6207 29.9259 32.576 30.0826L36.422 31.1814ZM36.627 29.8C36.627 28.7676 36.2636 27.7249 35.3544 26.9761L32.8116 30.0639C32.7839 30.0411 32.7519 30.0092 32.721 29.968C32.6901 29.9267 32.6667 29.8847 32.6503 29.8463C32.6173 29.7686 32.627 29.7397 32.627 29.8H36.627ZM35.4062 27.0203C34.5331 26.2499 33.4273 26.04 32.451 26.04V30.04C32.6731 30.04 32.7927 30.0652 32.8387 30.0787C32.8781 30.0903 32.8324 30.0837 32.7598 30.0197L35.4062 27.0203ZM32.451 26.04C31.4026 26.04 30.4168 26.333 29.525 26.8744L31.601 30.2936C31.9039 30.1096 32.1768 30.04 32.451 30.04V26.04ZM29.5707 26.8475C28.5936 27.4059 27.864 28.2299 27.3661 29.2256L30.9439 31.0144C31.1287 30.6448 31.3378 30.4448 31.5553 30.3205L29.5707 26.8475ZM30.0494 28.3311L24.3534 25.4831L22.5646 29.0609L28.2606 31.9089L30.0494 28.3311ZM25.2278 28.2055C25.8515 27.0238 26.7945 26.0373 28.126 25.249L26.088 21.807C24.1768 22.9387 22.6879 24.4482 21.6902 26.3385L25.2278 28.2055ZM28.126 25.249C29.3639 24.516 31.0044 24.088 33.155 24.088V20.088C30.4842 20.088 28.0928 20.62 26.088 21.807L28.126 25.249ZM33.155 24.088C34.7097 24.088 36.0053 24.3407 37.0816 24.7947L38.6364 21.1093C36.982 20.4113 35.1417 20.088 33.155 20.088V24.088ZM37.0816 24.7947C38.1627 25.2508 38.9219 25.8531 39.4472 26.5682L42.6708 24.1998C41.6601 22.8243 40.2859 21.8052 38.6364 21.1093L37.0816 24.7947ZM39.4472 26.5682C39.9372 27.2351 40.211 28.047 40.211 29.096H44.211C44.211 27.2864 43.7168 25.6236 42.6708 24.1998L39.4472 26.5682ZM40.211 29.096C40.211 29.6427 40.1389 30.1961 39.9896 30.7602L43.8564 31.7838C44.0911 30.8972 44.211 30 44.211 29.096H40.211ZM39.9762 30.8139C39.8768 31.2362 39.6417 31.7783 39.1844 32.4466L42.4856 34.7054C43.1377 33.7524 43.6279 32.7585 43.8698 31.7301L39.9762 30.8139ZM39.1986 32.4261C38.7621 33.0472 38.0593 33.8198 37.0315 34.7469L39.7105 37.7171C40.8587 36.6815 41.7985 35.6834 42.4714 34.7259L39.1986 32.4261ZM37.0245 34.7532L30.9445 40.2892L33.6375 43.2468L39.7175 37.7108L37.0245 34.7532ZM34.114 40.9454L32.93 38.3214L29.284 39.9666L30.468 42.5906L34.114 40.9454ZM31.107 41.144H42.723V37.144H31.107V41.144ZM40.723 39.144V45H44.723V39.144H40.723ZM42.723 43H24.771V47H42.723V43ZM51.7598 44.68L51.0489 46.5494L51.0646 46.5554L51.0805 46.5611L51.7598 44.68ZM47.7918 42.248L46.4201 43.7036L46.4271 43.7101L46.434 43.7165L47.7918 42.248ZM45.1998 38.536L43.3643 39.3304L43.3643 39.3304L45.1998 38.536ZM45.1998 29.064L43.3643 28.2696L43.3643 28.2696L45.1998 29.064ZM47.8238 25.352L46.466 23.8835L46.466 23.8835L47.8238 25.352ZM51.8238 22.952L52.503 24.8331L52.5103 24.8305L52.5175 24.8278L51.8238 22.952ZM62.8638 23.208L62.0704 25.044L62.0786 25.0474L62.8638 23.208ZM67.1838 26.408L68.5057 27.9088L69.9505 26.6363L68.7338 25.1441L67.1838 26.408ZM62.3518 30.664L60.8417 31.9754L62.1623 33.4961L63.6737 32.1648L62.3518 30.664ZM60.0478 28.84L59.1163 30.6098L59.1438 30.6243L59.1718 30.638L60.0478 28.84ZM55.0558 28.584L54.3535 26.7113L54.3436 26.7151L54.3338 26.7189L55.0558 28.584ZM53.3598 29.704L54.805 31.0864L54.805 31.0864L53.3598 29.704ZM52.2718 31.464L54.1444 32.1662L54.1444 32.1662L52.2718 31.464ZM52.2718 36.104L50.3922 36.7875L50.3956 36.7969L50.3991 36.8062L52.2718 36.104ZM53.3598 37.864L54.805 36.4816L54.805 36.4816L53.3598 37.864ZM55.0238 39.016L54.2285 40.8511L54.2649 40.8668L54.3018 40.8811L55.0238 39.016ZM59.7278 38.984L60.3751 40.8763L60.3972 40.8688L60.4192 40.8607L59.7278 38.984ZM62.3198 37.48L63.8702 36.2167L62.6432 34.7107L61.1021 35.8934L62.3198 37.48ZM66.5438 42.664L67.6591 44.3241L69.4796 43.1009L68.0942 41.4007L66.5438 42.664ZM61.8718 44.776L62.4119 46.7017L62.4119 46.7017L61.8718 44.776ZM59.9838 41.704H57.9838V43.4326L59.6942 43.6829L59.9838 41.704ZM59.9838 33.192V31.192H57.9838V33.192H59.9838ZM66.5438 33.192H68.5438V31.192H66.5438V33.192ZM66.5438 42.664L66.2542 44.6429L68.5438 44.978V42.664H66.5438ZM56.7838 43.512C55.1766 43.512 53.7345 43.2667 52.439 42.7989L51.0805 46.5611C52.857 47.2026 54.7642 47.512 56.7838 47.512V43.512ZM52.4706 42.8106C51.1825 42.3208 50.0824 41.642 49.1495 40.7795L46.434 43.7165C47.7624 44.9447 49.3076 45.8872 51.0489 46.5494L52.4706 42.8106ZM49.1634 40.7924C48.2564 39.9378 47.5482 38.9268 47.0352 37.7416L43.3643 39.3304C44.0886 41.0038 45.1085 42.4676 46.4201 43.7036L49.1634 40.7924ZM47.0352 37.7416C46.5364 36.5892 46.2718 35.2848 46.2718 33.8H42.2718C42.2718 35.7712 42.6258 37.6242 43.3643 39.3304L47.0352 37.7416ZM46.2718 33.8C46.2718 32.3152 46.5364 31.0108 47.0352 29.8584L43.3643 28.2696C42.6258 29.9758 42.2718 31.8288 42.2718 33.8H46.2718ZM47.0352 29.8584C47.5446 28.6816 48.2576 27.6747 49.1815 26.8205L46.466 23.8835C45.1285 25.12 44.0923 26.5877 43.3643 28.2696L47.0352 29.8584ZM49.1815 26.8205C50.1041 25.9675 51.203 25.3026 52.503 24.8331L51.1445 21.0709C49.3725 21.7108 47.8047 22.6458 46.466 23.8835L49.1815 26.8205ZM52.5175 24.8278C53.8282 24.343 55.2968 24.088 56.9438 24.088V20.088C54.8787 20.088 52.934 20.409 51.13 21.0762L52.5175 24.8278ZM56.9438 24.088C58.9376 24.088 60.6336 24.4231 62.0704 25.0439L63.6571 21.3721C61.6379 20.4996 59.3872 20.088 56.9438 20.088V24.088ZM62.0786 25.0474C63.5495 25.6752 64.7205 26.5519 65.6337 27.6719L68.7338 25.1441C67.3856 23.4907 65.6767 22.2341 63.6489 21.3686L62.0786 25.0474ZM65.8618 24.9072L61.0298 29.1632L63.6737 32.1648L68.5057 27.9088L65.8618 24.9072ZM63.8618 29.3526C63.0093 28.371 62.0333 27.5826 60.9237 27.042L59.1718 30.638C59.7262 30.9081 60.2862 31.3357 60.8417 31.9754L63.8618 29.3526ZM60.9792 27.0702C59.8549 26.4784 58.6237 26.2 57.3278 26.2V30.2C58.0372 30.2 58.6193 30.3483 59.1163 30.6098L60.9792 27.0702ZM57.3278 26.2C56.2894 26.2 55.2901 26.3601 54.3535 26.7113L55.758 30.4567C56.1868 30.2959 56.7021 30.2 57.3278 30.2V26.2ZM54.3338 26.7189C53.4113 27.0759 52.5956 27.6094 51.9145 28.3216L54.805 31.0864C55.0625 30.8172 55.3775 30.6041 55.7777 30.4491L54.3338 26.7189ZM51.9145 28.3216C51.2447 29.0218 50.743 29.8447 50.3991 30.7618L54.1444 32.1662C54.3125 31.718 54.5362 31.3675 54.805 31.0864L51.9145 28.3216ZM50.3991 30.7618C50.0439 31.7088 49.8878 32.7321 49.8878 33.8H53.8878C53.8878 33.1185 53.9876 32.5845 54.1444 32.1662L50.3991 30.7618ZM49.8878 33.8C49.8878 34.8394 50.0482 35.8415 50.3922 36.7875L54.1513 35.4205C53.9833 34.9585 53.8878 34.4246 53.8878 33.8H49.8878ZM50.3991 36.8062C50.743 37.7233 51.2447 38.5462 51.9145 39.2464L54.805 36.4816C54.5362 36.2005 54.3125 35.85 54.1444 35.4018L50.3991 36.8062ZM51.9145 39.2464C52.5732 39.9351 53.3507 40.4707 54.2285 40.8511L55.819 37.1809C55.4168 37.0066 55.0849 36.7742 54.805 36.4816L51.9145 39.2464ZM54.3018 40.8811C55.2239 41.2381 56.2091 41.4 57.2318 41.4V37.4C56.633 37.4 56.1463 37.3059 55.7457 37.1509L54.3018 40.8811ZM57.2318 41.4C58.3062 41.4 59.3569 41.2247 60.3751 40.8763L59.0804 37.0917C58.4772 37.298 57.8639 37.4 57.2318 37.4V41.4ZM60.4192 40.8607C61.4705 40.4734 62.5107 39.8545 63.5374 39.0666L61.1021 35.8934C60.2941 36.5135 59.6064 36.8973 59.0363 37.1073L60.4192 40.8607ZM60.7693 38.7433L64.9933 43.9273L68.0942 41.4007L63.8702 36.2167L60.7693 38.7433ZM65.4284 41.0039C64.2569 41.791 62.8975 42.4111 61.3316 42.8503L62.4119 46.7017C64.3446 46.1596 66.1 45.3717 67.6591 44.3241L65.4284 41.0039ZM61.3316 42.8503C59.7397 43.2968 58.2256 43.512 56.7838 43.512V47.512C58.6272 47.512 60.5051 47.2365 62.4119 46.7017L61.3316 42.8503ZM61.9838 41.704V33.192H57.9838V41.704H61.9838ZM59.9838 35.192H66.5438V31.192H59.9838V35.192ZM64.5438 33.192V42.664H68.5438V33.192H64.5438ZM66.8333 40.6851L60.2733 39.7251L59.6942 43.6829L66.2542 44.6429L66.8333 40.6851Z" fill="white" mask="url(#path-3-outside-1_371_1495)"/>
</svg>
